<svg xmlns="http://www.w3.org/2000/svg" fill="none" viewBox="0 0 32 30" preserveAspectRatio="xMidYMid meet" data-rnwi--njhh6i-hover-focus="true" data-rnwi-5xr8s6-dse9kg-1rbj2e8-2fw26j-focus-visible="true" data-rnwi-handle="nearest" class="r-1pa6394" style="vertical-align: middle; width: 28px; height: 28px;"><path fill="#778092" d="M13.478 15.34c1.564.904 2.347 1.355 3.206 1.356.859 0 1.642-.45 3.208-1.35l9.983-5.738a1.452 1.452 0 0 0 0-2.519l-9.987-5.74C18.324.449 17.542-.001 16.683 0c-.858 0-1.64.45-3.204 1.351L4.894 6.295l-.125.072A9.638 9.638 0 0 0 0 14.617v.289a9.639 9.639 0 0 0 4.885 8.316l5.377 3.105c3.134 1.809 4.7 2.714 6.422 2.714 1.72 0 3.288-.903 6.422-2.71l5.677-3.273c1.57-.904 2.355-1.357 2.786-2.103.431-.746.431-1.652.431-3.463v-3.5a1.385 1.385 0 0 0-2.076-1.202l-11.64 6.692c-.782.449-1.172.673-1.6.673-.43 0-.82-.224-1.601-.672l-7.88-4.523c-.394-.226-.591-.34-.75-.36a.803.803 0 0 0-.846.493c-.06.148-.06.376-.057.83.002.336.003.503.034.657.07.345.252.658.517.89.118.103.263.187.553.354l8.424 4.862c.784.452 1.175.678 1.605.678.43 0 .822-.226 1.606-.677l10.325-5.952c.267-.154.401-.231.502-.173.1.058.1.212.1.521v1.588c0 .453 0 .68-.108.866-.108.186-.304.3-.696.525l-8.516 4.91c-1.568.903-2.352 1.355-3.213 1.355-.86 0-1.643-.453-3.21-1.359l-7.968-4.602-.05-.029a5.472 5.472 0 0 1-2.71-4.697v-1.515c0-1.068.568-2.055 1.492-2.59a2.638 2.638 0 0 1 2.641-.003l6.6 3.809Z"></path></svg>