<svg width="24" height="24" viewBox="0 0 24 24" fill="none" xmlns="http://www.w3.org/2000/svg">
<g id="Frame" clip-path="url(#clip0_738_5624)">
<g id="Group">
<path id="Vector" d="M5.39182 16.3354C4.74569 16.3354 4.21997 16.8611 4.21997 17.5073C4.21997 18.1534 4.74564 18.6791 5.39182 18.6791C6.03796 18.6791 6.56363 18.1534 6.56363 17.5073C6.56363 16.8611 6.03796 16.3354 5.39182 16.3354Z" fill="#778092"/>
<path id="Vector_2" d="M23.297 10.3359H21.0943V7.71648C21.0943 7.58725 21.1994 7.48211 21.3286 7.48211H21.938C22.3263 7.48211 22.6411 7.16732 22.6411 6.77903C22.6411 6.39074 22.3263 6.07595 21.938 6.07595H21.3286C20.4241 6.07595 19.6881 6.81189 19.6881 7.71648V10.3359H15.9853L13.9986 2.50822H14.5009C14.8892 2.50822 15.204 2.19342 15.204 1.80513C15.204 1.41684 14.8892 1.10205 14.5009 1.10205H3.82955C3.44126 1.10205 3.12647 1.41684 3.12647 1.80513C3.12647 2.19342 3.44126 2.50822 3.82955 2.50822H3.97902L3.16682 9.61452C2.11449 9.9123 1.1231 10.419 0.262805 11.11C-0.039896 11.3532 -0.0882213 11.7957 0.154952 12.0985C0.398125 12.4012 0.840599 12.4494 1.14339 12.2063C2.36142 11.228 3.83049 10.7108 5.39185 10.7108C9.13947 10.7108 12.1884 13.7597 12.1884 17.5073C12.1884 17.854 12.1619 18.2023 12.1098 18.5423C12.0509 18.9261 12.3143 19.285 12.6982 19.3438C12.7337 19.3493 12.7696 19.352 12.8056 19.352C13.1469 19.352 13.4464 19.1032 13.4997 18.7555C13.5274 18.5753 13.5487 18.3933 13.5642 18.2104H15.1695C15.7681 16.3106 17.5463 14.9292 19.6412 14.9292C21.5703 14.9292 23.2307 16.1007 23.9489 17.7696C23.9826 17.6862 24 17.5972 24 17.5073V11.039C24 10.6507 23.6852 10.3359 23.297 10.3359ZM5.39189 9.30465C5.13129 9.30465 4.87147 9.31773 4.61321 9.34261L5.39429 2.50822H10.0323V10.3359H9.36966C8.19078 9.67939 6.83439 9.30465 5.39189 9.30465ZM11.4386 10.3359V2.50822H12.5478L14.5345 10.3359H11.4386Z" fill="#C4D3D9"/>
<circle id="Ellipse 127" cx="5.5" cy="17.5" r="5.5" fill="#778092"/>
<circle id="Ellipse 128" cx="19.5" cy="19.5" r="3.5" fill="#778092"/>
</g>
</g>
<defs>
<clipPath id="clip0_738_5624">
<rect width="24" height="24" fill="white"/>
</clipPath>
</defs>
</svg>
