<svg width="24" height="24" viewBox="0 0 24 24" fill="none" xmlns="http://www.w3.org/2000/svg">
<path d="M13.5002 2C8.80599 2 5.00024 5.80541 5.00024 10.5C5.00024 15.1946 8.80599 19 13.5002 19C18.1945 19 22.0002 15.1943 22.0002 10.5C22.0002 5.80574 18.1945 2 13.5002 2ZM13.0055 9.20807C13.1599 9.36777 13.4079 9.52051 13.7496 9.66561C14.0913 9.8107 14.414 9.96145 14.7171 10.1175C15.0203 10.2739 15.2823 10.4509 15.5027 10.6494C15.7232 10.848 15.8959 11.0794 16.021 11.344C16.1459 11.6087 16.2083 11.9264 16.2083 12.2976C16.2083 12.9262 16.0087 13.4388 15.6103 13.8356C15.2115 14.2324 14.6687 14.4641 13.9814 14.5302V15.6382H13.1048V14.5246C12.3036 14.4399 11.689 14.1653 11.261 13.7004C10.8327 13.2356 10.6189 12.6227 10.6189 11.862H12.4766C12.4766 12.281 12.5692 12.5998 12.7548 12.8182C12.9404 13.0371 13.2041 13.1463 13.5457 13.1463C13.7958 13.1463 13.9923 13.0719 14.1354 12.9232C14.2789 12.7744 14.3502 12.5696 14.3502 12.3086C14.3502 12.0184 14.2785 11.7903 14.1354 11.6249C13.992 11.4596 13.7403 11.3035 13.38 11.1564C13.0198 11.0093 12.6874 10.8606 12.3823 10.7098C12.0772 10.5591 11.8145 10.3845 11.5941 10.1862C11.3736 9.98768 11.2046 9.75824 11.087 9.49727C10.9695 9.23629 10.9107 8.9202 10.9107 8.54898C10.9107 7.92809 11.1202 7.41609 11.5393 7.01367C11.9583 6.61125 12.5168 6.37684 13.215 6.31076V5.14766H14.0916V6.33301C14.764 6.43229 15.2922 6.70887 15.6764 7.16275C16.0602 7.61664 16.2525 8.19271 16.2525 8.89098H14.3891C14.3891 8.50881 14.3154 8.21496 14.1686 8.0091C14.0215 7.80324 13.812 7.70031 13.5401 7.70031C13.2977 7.70031 13.1091 7.77668 12.975 7.92908C12.8408 8.08148 12.7738 8.29199 12.7738 8.56027C12.7738 8.82855 12.8508 9.04803 13.0052 9.20807H13.0055Z" fill="#778092"/>
<path d="M6.5 13C4.0148 13 2 15.0148 2 17.5C2 19.9852 4.0148 22 6.5 22C8.9852 22 11 19.9852 11 17.5C11 15.0148 8.9852 13 6.5 13ZM8.96094 17.7568C8.96089 17.8419 8.92706 17.9235 8.86687 17.9837C8.80669 18.0439 8.72507 18.0777 8.63996 18.0778H7.07779V19.64C7.07775 19.7251 7.04391 19.8067 6.98373 19.8669C6.92354 19.9271 6.84193 19.9609 6.75682 19.9609H6.24318C6.15807 19.9609 6.07646 19.9271 6.01627 19.8669C5.95609 19.8067 5.92225 19.7251 5.92221 19.64V18.0778H4.36004C4.27492 18.0777 4.19331 18.0439 4.13313 17.9837C4.07294 17.9235 4.03911 17.8419 4.03906 17.7568V17.2432C4.03911 17.1581 4.07294 17.0765 4.13313 17.0163C4.19331 16.9561 4.27492 16.9223 4.36004 16.9222H5.92221V15.36C5.92225 15.2749 5.95609 15.1933 6.01627 15.1331C6.07646 15.0729 6.15807 15.0391 6.24318 15.0391H6.75682C6.84193 15.0391 6.92354 15.0729 6.98373 15.1331C7.04391 15.1933 7.07775 15.2749 7.07779 15.36V16.9222H8.63996C8.72507 16.9223 8.80669 16.9561 8.86687 17.0163C8.92706 17.0765 8.96089 17.1581 8.96094 17.2432V17.7568Z" fill="#C4D3D9"/>
</svg>
