<svg width="24" height="24" viewBox="0 0 24 24" fill="none" xmlns="http://www.w3.org/2000/svg">
<path d="M12 7.5C12.7 7.5 13.3 7.6 13.9 7.9C14.3 8.1 14.9 8.1 15.2 7.7L17.7 5.2C18.1 4.8 18.1 4.1 17.6 3.8C16 2.7 14.1 2 12 2C9.90002 2 7.90002 2.6 6.30002 3.8C5.80002 4.1 5.80002 4.8 6.20002 5.2L8.80002 7.8C9.10002 8.1 9.70002 8.2 10.1 8C10.7 7.7 11.3 7.5 12 7.5ZM12 16.5C11.2 16.5 10.4 16.3 9.70002 15.9C9.50002 15.8 9.20002 15.8 9.00002 16L5.80002 19.2C5.60002 19.4 5.60002 19.7 5.80002 19.9C7.60002 21.2 9.70002 22 12 22C14.3 22 16.4 21.2 18.1 19.9C18.3 19.7 18.3 19.4 18.1 19.2L14.9 16C14.7 15.8 14.5 15.8 14.2 15.9C13.6 16.3 12.8 16.5 12 16.5Z" fill="#778092"/>
<path d="M19.1999 5.9C19.3999 5.7 19.6999 5.7 19.8999 5.9C21.1999 7.6 21.9999 9.7 21.9999 12.2C21.9999 14.5 21.1999 16.6 19.8999 18.3C19.6999 18.5 19.3999 18.5 19.1999 18.3L15.9999 15.1C15.7999 14.9 15.7999 14.6 15.8999 14.4C16.2999 13.7 16.4999 12.9 16.4999 12.1C16.4999 11.2 16.2999 10.5 15.8999 9.8C15.7999 9.5 15.7999 9.3 15.9999 9.1L19.1999 5.9Z" fill="#C4D3D9"/>
<path d="M7.90012 10.1546C7.60012 10.7546 7.50012 11.3546 7.50012 12.0546C7.50012 12.7546 7.60012 13.3546 8.00012 13.9546C8.20012 14.3546 8.10012 14.9546 7.80012 15.2546L5.20012 17.8546C4.80012 18.2546 4.10012 18.2546 3.80012 17.7546C2.60012 16.1546 2.00012 14.1546 2.00012 12.0546C2.00012 9.95464 2.60012 7.95464 3.70012 6.35464C4.10012 5.95464 4.70012 5.85464 5.20012 6.25464L7.70012 8.85464C8.10012 9.15464 8.10012 9.75464 7.90012 10.1546Z" fill="#C4D3D9"/>
</svg>
