<svg width="24" height="24" viewBox="0 0 24 24" fill="none" xmlns="http://www.w3.org/2000/svg">
<path d="M11.9999 7.5C12.6999 7.5 13.2999 7.6 13.8999 7.9C14.2999 8.1 14.8999 8.1 15.1999 7.7L17.6999 5.2C18.0999 4.8 18.0999 4.1 17.5999 3.8C15.9999 2.7 14.0999 2 11.9999 2C9.8999 2 7.8999 2.6 6.2999 3.8C5.7999 4.1 5.7999 4.8 6.1999 5.2L8.7999 7.8C9.0999 8.1 9.6999 8.2 10.0999 8C10.6999 7.7 11.2999 7.5 11.9999 7.5ZM11.9999 16.5C11.1999 16.5 10.3999 16.3 9.6999 15.9C9.4999 15.8 9.1999 15.8 8.9999 16L5.7999 19.2C5.5999 19.4 5.5999 19.7 5.7999 19.9C7.5999 21.2 9.6999 22 11.9999 22C14.2999 22 16.3999 21.2 18.0999 19.9C18.2999 19.7 18.2999 19.4 18.0999 19.2L14.8999 16C14.6999 15.8 14.4999 15.8 14.1999 15.9C13.5999 16.3 12.7999 16.5 11.9999 16.5Z" fill="#778092"/>
<path d="M19.1999 5.9C19.3999 5.7 19.6999 5.7 19.8999 5.9C21.1999 7.6 21.9999 9.7 21.9999 12.2C21.9999 14.5 21.1999 16.6 19.8999 18.3C19.6999 18.5 19.3999 18.5 19.1999 18.3L15.9999 15.1C15.7999 14.9 15.7999 14.6 15.8999 14.4C16.2999 13.7 16.4999 12.9 16.4999 12.1C16.4999 11.2 16.2999 10.5 15.8999 9.8C15.7999 9.5 15.7999 9.3 15.9999 9.1L19.1999 5.9Z" fill="#1ED760"/>
<path d="M7.9 10.1546C7.6 10.7546 7.5 11.3546 7.5 12.0546C7.5 12.7546 7.6 13.3546 8 13.9546C8.2 14.3546 8.1 14.9546 7.8 15.2546L5.2 17.8546C4.8 18.2546 4.1 18.2546 3.8 17.7546C2.6 16.1546 2 14.1546 2 12.0546C2 9.95464 2.6 7.95464 3.7 6.35464C4.1 5.95464 4.7 5.85464 5.2 6.25464L7.7 8.85464C8.1 9.15464 8.1 9.75464 7.9 10.1546Z" fill="#1ED760"/>
</svg>
