<svg width="24" height="24" viewBox="0 0 24 24" fill="none" xmlns="http://www.w3.org/2000/svg">
<g id="Menu">
<g id="Group">
<path id="Vector" d="M15.3892 7.3123L9.83447 11.8873V9.38418C9.83447 9.2623 9.73603 9.15918 9.60947 9.15918L8.98135 9.14512C8.08604 9.10762 7.20947 9.20137 6.37979 9.43105C4.71104 9.92324 3.4501 10.8467 2.38135 12.3889V11.6811C2.38604 11.6576 2.39072 11.6295 2.39541 11.5967C2.39541 10.8936 2.52666 10.1529 2.76572 9.46856C3.62354 7.07793 5.94854 5.48418 8.55947 5.48418H9.6001C9.72666 5.48418 9.8251 5.38105 9.8251 5.25918V2.7373L15.3892 7.3123Z" fill="#C4D3D9"/>
<path id="Vector_2" d="M21.6188 12.3375V11.625C20.5454 13.1672 19.2892 14.0859 17.6204 14.5828C16.7907 14.8125 15.9142 14.9063 15.0188 14.8688L14.3907 14.8547C14.2642 14.85 14.1657 14.7469 14.1657 14.625V12.1219L8.61572 16.6922L14.1704 21.2625V18.7594C14.1704 18.6328 14.2735 18.5297 14.4001 18.5297H15.4407C18.0517 18.5297 20.3767 16.9359 21.2345 14.5453C21.4735 13.8609 21.6048 13.1203 21.6048 12.4172C21.6048 12.3891 21.6095 12.3609 21.6188 12.3375Z" fill="#778092"/>
</g>
</g>
</svg>
