<svg width="48" height="49" viewBox="0 0 48 49" fill="none" xmlns="http://www.w3.org/2000/svg">
<g id="Frame" clip-path="url(#clip0_325_10299)">
<path id="Vector" d="M16.4985 25.3814L33.4223 40.2183C33.6172 40.3903 33.8535 40.5086 34.108 40.5618C34.3625 40.6149 34.6264 40.601 34.8739 40.5214C35.1214 40.4418 35.3439 40.2993 35.5197 40.1077C35.6955 39.9162 35.8185 39.6823 35.8767 39.4289L43.4985 6.32201C43.506 6.28881 43.5042 6.25422 43.4935 6.22193C43.4828 6.18964 43.4635 6.16088 43.4377 6.13872C43.4119 6.11656 43.3805 6.10185 43.347 6.09615C43.3134 6.09046 43.279 6.09399 43.2473 6.10638L5.24853 20.977C5.01264 21.0678 4.81256 21.2327 4.67833 21.4468C4.5441 21.661 4.48296 21.9129 4.50409 22.1648C4.52522 22.4167 4.62748 22.6549 4.79552 22.8438C4.96356 23.0326 5.18831 23.1618 5.43603 23.212L16.4985 25.3814Z" stroke="#F0F0F8" stroke-width="3" stroke-linecap="round" stroke-linejoin="round"/>
<path id="Vector_2" d="M16.5 25.3814L43.3894 6.11011" stroke="#F0F0F8" stroke-width="3" stroke-linecap="round" stroke-linejoin="round"/>
<path id="Vector_3" d="M24.8194 32.677L19.08 38.632C18.8726 38.8471 18.6057 38.9955 18.3135 39.0579C18.0212 39.1203 17.717 39.0941 17.4398 38.9825C17.1626 38.8709 16.925 38.679 16.7576 38.4315C16.5901 38.184 16.5004 37.8921 16.5 37.5932V25.3813" stroke="#F0F0F8" stroke-width="3" stroke-linecap="round" stroke-linejoin="round"/>
</g>
<defs>
<clipPath id="clip0_325_10299">
<rect width="48" height="48" fill="white" transform="translate(0 0.0932617)"/>
</clipPath>
</defs>
</svg>
