<svg width="48" height="49" viewBox="0 0 48 49" fill="none" xmlns="http://www.w3.org/2000/svg">
<g id="Frame">
<path id="Vector" d="M42 15.9273V23.9953C38.3721 23.6353 34.9129 22.2855 32 20.0933V29.0933C31.9995 31.5355 31.311 33.9282 30.0134 35.9973C28.7158 38.0663 26.8617 39.728 24.6633 40.7919C22.465 41.8559 20.0114 42.2791 17.5837 42.013C15.156 41.7469 12.8523 40.8024 10.9366 39.2875C9.02091 37.7727 7.57068 35.7488 6.75205 33.4479C5.93343 31.1469 5.77953 28.6619 6.30798 26.2775C6.83643 23.8931 8.02586 21.7057 9.74 19.9661C11.4541 18.2265 13.6237 17.0049 16 16.4413V25.0933C15.3182 25.6046 14.7784 26.2818 14.4319 27.0605C14.0854 27.8391 13.9437 28.6935 14.0202 29.5423C14.0967 30.3911 14.389 31.2063 14.8692 31.9104C15.3494 32.6146 16.0016 33.1842 16.7639 33.5654C17.5262 33.9466 18.3733 34.1265 19.2247 34.0882C20.0762 34.0499 20.9037 33.7946 21.6287 33.3465C22.3537 32.8984 22.9521 32.2725 23.3671 31.5281C23.7821 30.7837 24 29.9455 24 29.0933V6.09326H32.166C32.5824 8.55007 33.7527 10.8165 35.5147 12.5785C37.2768 14.3405 39.5432 15.5108 42 15.9273Z" stroke="#F0F0F8" stroke-width="3" stroke-linecap="round" stroke-linejoin="round"/>
</g>
</svg>
