<svg width="48" height="49" viewBox="0 0 48 49" fill="none" xmlns="http://www.w3.org/2000/svg">
<g clip-path="url(#clip0_325_10288)">
<path d="M16.5 33.0933C16.5 33.0933 6.15937 27.0933 7.64625 10.5933C7.64625 10.5933 15.0825 18.0933 24 19.5933V16.5933C24 12.4683 27.375 9.0427 31.5 9.09333C32.9557 9.11023 34.3763 9.54279 35.5945 10.34C36.8126 11.1373 37.7775 12.266 38.3756 13.5933H45L39 19.5933C38.2012 32.1258 27.735 42.0933 15 42.0933C9 42.0933 7.5 39.8433 7.5 39.8433C7.5 39.8433 13.5 37.5933 16.5 33.0933Z" stroke="#F0F0F8" stroke-width="3" stroke-linecap="round" stroke-linejoin="round"/>
</g>
<defs>
<clipPath id="clip0_325_10288">
<rect width="48" height="48" fill="white" transform="translate(0 0.0932617)"/>
</clipPath>
</defs>
</svg>
