<svg width="48" height="49" viewBox="0 0 48 49" fill="none" xmlns="http://www.w3.org/2000/svg">
<g id="Frame">
<path id="Vector" d="M42.2045 13.6327C41.9993 12.7425 41.5815 11.9268 40.9932 11.2681C40.4048 10.6094 39.6669 10.1309 38.8538 9.8811C35.883 9.09326 24 9.09326 24 9.09326C24 9.09326 12.117 9.09326 9.14623 9.95613C8.33315 10.206 7.59518 10.6844 7.00685 11.3431C6.41851 12.0018 6.00066 12.8175 5.79549 13.7078C5.2518 16.9821 4.98585 20.3037 5.00099 23.6308C4.98161 26.9829 5.24757 30.3299 5.79549 33.6288C6.02168 34.4914 6.4489 35.2761 7.03586 35.907C7.62282 36.5379 8.34969 36.9937 9.14623 37.2304C12.117 38.0933 24 38.0933 24 38.0933C24 38.0933 35.883 38.0933 38.8538 37.2304C39.6669 36.9806 40.4048 36.5021 40.9932 35.8434C41.5815 35.1847 41.9993 34.369 42.2045 33.4788C42.744 30.2291 43.0099 26.9328 42.999 23.6308C43.0184 20.2786 42.7524 16.9317 42.2045 13.6327Z" stroke="#F0F0F8" stroke-width="3" stroke-linecap="round" stroke-linejoin="round"/>
<path id="Vector_2" d="M20 29.0933L30 23.5933L20 18.0933V29.0933Z" stroke="#F0F0F8" stroke-width="3" stroke-linecap="round" stroke-linejoin="round"/>
</g>
</svg>
