<svg xmlns="http://www.w3.org/2000/svg" width="80" height="80" viewBox="0 0 80 80" fill="none">
  <path d="M29.8139 77.1175L5.21413 64.2895C3.74596 63.5389 3.65827 61.4735 5.05753 60.6011L40.4946 38.0877C41.1267 37.6937 41.9191 37.6601 42.5822 37.9991L68.1751 51.3349C69.6433 52.0855 69.731 54.1509 68.3317 55.0232L33.8411 76.9465C32.6219 77.7067 31.0932 77.7716 29.8139 77.1175Z" stroke="url(#paint0_linear_569_14580)" stroke-width="1.12557" stroke-miterlimit="10"/>
  <path d="M63.0312 33.0216L58.8545 37.8313L52.7277 44.8894L47.8016 50.565L45.4513 53.2718L45.4296 53.2936L44.5782 54.7926L39.3756 63.9317L36.4796 69.0252L36.4724 69.0325L23.2075 61.7997L18.3467 59.3549C17.7211 59.042 17.3281 58.4017 17.3281 57.6959V40.7491C17.3281 40.3199 17.4082 39.8978 17.5537 39.5121C17.612 39.3521 17.6847 39.192 17.7721 39.0392C18.0631 38.5008 18.4924 38.0423 19.0309 37.7149L42.7664 23.2567C43.5304 22.791 44.4837 22.7837 45.2623 23.2276L49.4897 25.6579L63.0312 33.0216Z" fill="url(#paint1_linear_569_14580)"/>
  <path d="M63.0302 33.0216L58.8535 37.8313L52.7267 44.8894L38.3167 47.4468L37.7368 47.907C37.0906 48.4197 36.2043 48.5069 35.4706 48.1301L18.7005 39.5166C18.1517 39.2347 18.0683 38.491 18.5307 38.0825C18.6843 37.9468 18.8511 37.8236 19.0299 37.7149L42.7654 23.2567C43.5294 22.791 44.4827 22.7837 45.2613 23.2276L49.4887 25.6579L63.0302 33.0216Z" fill="url(#paint2_linear_569_14580)"/>
  <path d="M63.5769 33.9634V51.9003C63.5769 52.6961 63.1627 53.4346 62.4835 53.8495L37.6412 69.0251C36.9035 69.4757 35.957 68.9448 35.957 68.0803V50.7477C35.957 49.5902 36.5595 48.5161 37.5473 47.9127L61.9115 33.0292C62.641 32.5836 63.5769 33.1086 63.5769 33.9634Z" fill="url(#paint3_linear_569_14580)"/>
  <path d="M12.0859 43.1644L13.1413 43.2037L20.1601 46.759L27.7043 50.7442L29.2467 51.5238C29.8076 51.806 30.2431 52.2381 30.5456 52.7627C30.5752 52.8109 30.5974 52.8598 30.6269 52.9152C30.8556 53.3595 30.9738 53.865 30.9738 54.3962V71.1901C30.9738 71.5903 30.8334 71.9964 30.5752 72.3335L30.2799 72.6814L33.5251 70.7611C34.1597 70.3887 34.5582 69.7038 34.5582 69.0053V52.0585C34.5582 51.6074 34.4698 51.1791 34.3073 50.7868C34.2925 50.7519 34.2777 50.7169 34.2557 50.6825C33.9752 50.0394 33.4734 49.5189 32.8312 49.1861L23.2575 44.1759L18.4677 41.7506L17.213 41.1115C16.438 40.7184 15.464 40.8024 14.6816 41.3196L12.0859 43.1644Z" fill="url(#paint4_linear_569_14580)"/>
  <path d="M12.0859 43.1644L13.1413 43.2037L20.1601 46.759L27.7043 50.7442L29.2467 51.5238C29.5597 51.6812 29.8337 51.8854 30.0673 52.1263C30.4083 52.478 30.974 52.5213 31.4407 52.2573C32.4819 51.6683 32.1045 51.9088 33.5936 51.06C33.989 50.8346 34.1044 50.3269 33.8426 50.0037C33.572 49.6696 33.2284 49.3919 32.8312 49.1861L23.2575 44.1758L18.4676 41.7506L17.213 41.1114C16.4416 40.7184 15.4742 40.7961 14.6902 41.3139L12.0859 43.1644Z" fill="url(#paint5_linear_569_14580)"/>
  <path d="M11.4141 44.2319V62.1688C11.4141 62.9646 11.8342 63.6637 12.5231 64.014L29.2639 72.7009C30.0121 73.0814 30.9722 72.4605 30.9722 71.596V54.2634C30.9722 53.1059 30.3611 52.0891 29.3592 51.5796L13.1033 43.1393C12.3634 42.763 11.4141 43.377 11.4141 44.2319Z" fill="url(#paint6_linear_569_14580)"/>
  <path d="M55.5216 32.617L35.8921 44.7346C35.5039 44.9743 35.0186 44.9933 34.6128 44.785L24.6491 39.6685C24.2423 39.4596 24.2198 38.8865 24.6089 38.6462L44.2384 26.5286C44.6266 26.289 45.1119 26.2699 45.5177 26.4783L55.4813 31.5947C55.8881 31.8036 55.9107 32.3768 55.5216 32.617Z" fill="url(#paint7_linear_569_14580)"/>
  <path d="M47.3337 12.5801L42.882 10.7673C41.8026 10.3655 40.8199 9.92997 39.6865 9.77763L39.6536 9.76553L39.6448 9.76998C39.2511 9.71919 38.8481 9.69026 38.4317 9.69735C32.3177 9.80155 26.1866 15.9568 24.6635 23.7683C23.381 30.3451 25.9078 36.1518 30.3623 38.3872L31.5031 38.9135C32.7071 39.4688 33.9381 39.9636 35.1915 40.396L36.6756 38.685C37.1907 38.8796 37.7668 40.837 37.9385 40.3138L39.4982 35.5625C42.9786 32.9744 45.792 28.6022 46.7518 23.6947C47.3428 20.6722 47.1383 17.8731 46.312 15.5769L47.3337 12.5801Z" fill="url(#paint8_linear_569_14580)"/>
  <path d="M51.2485 25.8067C49.7929 33.7158 43.7828 40.3929 37.6776 40.6771C31.3927 40.9696 27.4793 34.4106 29.0952 26.0753C30.6992 17.8014 37.0857 11.2522 43.2077 11.3887C49.157 11.5213 52.6938 17.9528 51.2485 25.8067Z" fill="url(#paint9_linear_569_14580)"/>
  <path d="M48.6071 26.2002C47.3572 31.9862 43.285 36.8247 39.0511 37.6916C38.6278 37.7723 38.2045 37.8226 37.781 37.8226C32.9828 37.8629 30.2209 32.4197 31.7329 25.7163C32.8923 20.5754 36.1983 16.3518 39.797 14.8499C40.8454 14.4064 41.914 14.1947 42.9724 14.2652C47.4883 14.5575 49.968 19.8799 48.6071 26.2002Z" fill="#295C4A"/>
  <path d="M47.1657 26.6537C46.0669 31.7846 42.7406 36.1694 39.0511 37.6916C38.6278 37.7722 38.2045 37.8226 37.781 37.8226C32.9828 37.8629 30.2209 32.4196 31.7329 25.7163C32.8923 20.5754 36.1983 16.3518 39.797 14.8499C40.3717 14.7289 40.9564 14.6785 41.5308 14.7188C46.057 15.0111 48.5367 20.3335 47.1657 26.6537Z" fill="white"/>
  <path d="M34.221 32.3556C34.0878 32.4383 34.0293 32.3927 34.0293 32.2061V27.371C34.0293 27.1845 34.0878 27.0661 34.221 26.9834L35.0786 26.4505C35.1903 26.3811 35.2597 26.3978 35.3237 26.5221L35.8029 27.4406C35.8402 27.5067 35.8562 27.5341 35.8987 27.5077L35.9466 27.4779C35.9894 27.4514 36.0054 27.404 36.0425 27.2917L36.5168 25.7807C36.5805 25.5771 36.6499 25.4741 36.7616 25.4047L37.6244 24.8685C37.7578 24.7857 37.8163 24.8313 37.8163 25.0178V29.8529C37.8163 30.0394 37.7578 30.1578 37.6244 30.2407L36.8043 30.7503C36.6657 30.8364 36.6126 30.7874 36.6126 30.6009V27.9745L36.2981 28.9831C36.2344 29.1943 36.1544 29.3112 36.016 29.3972L35.8029 29.5296C35.6645 29.6156 35.5845 29.5982 35.5205 29.4663L35.2063 28.8483V31.4747C35.2063 31.6613 35.1478 31.7797 35.0146 31.8624L34.221 32.3556Z" fill="#3EB087"/>
  <path d="M38.7444 29.544C38.6113 29.6267 38.5527 29.5811 38.5527 29.3946V24.5595C38.5527 24.373 38.6113 24.2546 38.7444 24.1718L39.57 23.6589C39.7031 23.5761 39.7619 23.6216 39.7619 23.8081V25.5244L39.9748 25.3921L40.5234 23.3127C40.5768 23.1004 40.6512 22.987 40.7897 22.9009L41.6101 22.3912C41.7326 22.315 41.7751 22.3782 41.7272 22.5647L41.1839 24.6408C41.5834 24.4223 41.839 24.6514 41.839 25.2483V27.3525C41.839 27.539 41.7805 27.6574 41.6474 27.7402L40.827 28.2499C40.6939 28.3326 40.6353 28.287 40.6353 28.1005V26.6454C40.6353 26.4814 40.5768 26.4282 40.4649 26.4977L39.7619 26.9345V28.6432C39.7619 28.8298 39.7031 28.9483 39.57 29.031L38.7444 29.544Z" fill="#3EB087"/>
  <path d="M43.3422 26.6864C43.2091 26.7692 43.1505 26.7235 43.1505 26.537V22.8735L42.3675 23.3601C42.2343 23.4429 42.1758 23.3969 42.1758 23.2104V22.3076C42.1758 22.1211 42.2343 22.0027 42.3675 21.9199L45.1798 20.1724C45.3129 20.0897 45.3715 20.1353 45.3715 20.3218V21.2246C45.3715 21.4111 45.3129 21.5298 45.1798 21.6126L44.3968 22.0991V25.7626C44.3968 25.9491 44.3382 26.0675 44.205 26.1502L43.3422 26.6864Z" fill="#3EB087"/>
  <path d="M40.79 61.3343C40.6157 61.444 40.5391 61.3728 40.5391 61.1011V59.8296C40.5391 59.558 40.6157 59.3903 40.79 59.2806L42.6654 58.1005C42.7841 58.0259 42.8468 57.8448 42.8468 57.671C42.8468 57.421 42.7841 57.3627 42.6654 57.4157L41.6197 57.8454C40.9643 58.1061 40.5391 57.9387 40.5391 56.7216V55.5806C40.5391 54.3418 41.0758 53.3302 41.9822 52.7599L43.9346 51.5315C44.1089 51.4218 44.1855 51.493 44.1855 51.7647V53.0579C44.1855 53.3295 44.1089 53.4972 43.9346 53.6069L42.31 54.629C42.1914 54.7037 42.1216 54.8782 42.1216 55.0737C42.1216 55.2693 42.1914 55.3558 42.31 55.3029L43.3487 54.867C44.0041 54.6063 44.4364 54.7692 44.4364 55.9863V57.1273C44.4364 58.3661 43.8925 59.3821 42.9933 59.948L40.79 61.3343Z" fill="white"/>
  <path d="M49.8448 47.8141C50.019 47.7045 50.096 47.7755 50.096 48.0472V52.2635C50.096 52.7311 50.096 53.0789 49.9705 53.69L49.6217 55.3877C49.5728 55.6356 49.4894 55.862 49.3429 55.9542L48.4155 56.5377C48.2623 56.6342 48.1368 56.6153 48.0948 56.4135L47.774 54.8438C47.7462 54.7202 47.7045 54.7031 47.6486 54.7383L47.5858 54.7778C47.5302 54.8128 47.4882 54.8826 47.4603 55.0412L47.1328 57.0188C47.0908 57.2624 46.9863 57.437 46.8398 57.5292L45.9196 58.1082C45.766 58.2049 45.6615 58.1078 45.6127 57.9102L45.2641 56.6297C45.1387 56.1764 45.1387 55.8287 45.1387 55.3611V51.1665C45.1387 50.8948 45.2153 50.7271 45.3896 50.6175L46.4635 49.9418C46.6377 49.8321 46.7144 49.9033 46.7144 50.175V54.174L47.1186 52.5504C47.1955 52.252 47.3071 52.0951 47.4882 51.9812L47.7811 51.7968C47.9625 51.6827 48.074 51.6992 48.1507 51.901L48.5549 53.0159V49.0169C48.5549 48.7452 48.6248 48.5818 48.8061 48.4677L49.8448 47.8141Z" fill="white"/>
  <path d="M52.1685 54.1754L51.1438 54.8202C50.9695 54.9299 50.8926 54.8588 50.8926 54.5872V51.7181C50.8926 51.2836 50.9763 50.6876 51.1645 49.8082L51.7711 46.96C51.8271 46.6749 51.9386 46.4959 52.1268 46.3774L54.0022 45.1974C54.1836 45.0832 54.2952 45.1219 54.3508 45.3368L54.9574 47.4216C55.1459 48.064 55.2294 48.5548 55.2294 48.9893V51.8584C55.2294 52.13 55.1527 52.2977 54.9784 52.4074L53.9256 53.0698C53.7374 53.1882 53.6537 53.1215 53.6537 52.8498V51.3283L52.4197 52.1048V53.6263C52.4197 53.8979 52.3428 54.0658 52.1685 54.1754ZM52.4893 50.0834L53.5841 49.3945L53.2563 47.9487C53.2214 47.8402 53.1796 47.8125 53.1237 47.8477L52.9494 47.9573C52.8938 47.9923 52.8518 48.0728 52.8171 48.2251L52.4893 50.0834Z" fill="white"/>
  <path d="M56.3427 51.55C56.1684 51.6596 56.0918 51.5884 56.0918 51.3168V44.2747C56.0918 44.0031 56.1684 43.8354 56.3427 43.7257L58.4762 42.3833C59.7453 41.5847 60.1217 42.2062 60.1217 43.4671V44.8581C60.1217 46.1185 59.7453 47.2137 58.4762 48.0122L57.6746 48.5166V50.3208C57.6746 50.5925 57.5977 50.7603 57.4234 50.87L56.3427 51.55ZM57.6604 46.5696L58.288 46.1747C58.5599 46.0036 58.6156 45.7186 58.6156 45.4363V44.8603C58.6156 44.5776 58.5599 44.3627 58.288 44.5338L57.6604 44.9287V46.5696Z" fill="white"/>
  <path d="M56.2344 19.7542L57.5439 16.8726L59.0835 18.2582L57.7876 21.1247L56.2344 19.7542Z" fill="white"/>
  <path d="M32.3105 5.85315L33.8885 2.38104L35.7434 4.05051L34.182 7.50444L32.3105 5.85315Z" fill="white"/>
  <path d="M14.7656 30.7739L16.7688 26.3661L19.1236 28.4855L17.1414 32.8702L14.7656 30.7739Z" fill="white"/>
  <path d="M19.8339 65.2232L14.5898 55.321L16.6098 53.6183L19.8339 59.7057L25.2479 55.1423L27.2679 58.9571L19.8339 65.2232Z" fill="white"/>
  <path d="M67.268 55.5095L67.0341 54.3546L65.2414 53.9029L65.242 53.9115C65.0924 53.8505 64.9184 53.8542 64.7128 53.9447C64.441 54.0534 64.1783 54.2437 63.9155 54.3977C63.843 54.443 63.7705 54.4883 63.7253 54.3977C63.5168 53.9991 63.1816 53.99 62.8011 54.144C62.5201 54.2618 62.2392 54.4702 61.9584 54.6333C61.8768 54.6786 61.8043 54.7058 61.75 54.6152C61.5687 54.2799 61.2879 54.2256 60.9526 54.3343C60.6807 54.4158 60.3999 54.6152 60.128 54.7964C59.9649 54.8961 59.9287 54.8417 59.9287 54.6061C59.9316 54.3906 59.9276 54.1733 59.9287 53.9564L61.154 53.5216L61.4061 52.1182L59.3781 51.6039L59.3753 51.617C59.005 51.5359 58.6009 51.7371 58.1799 52.1416C57.6545 52.649 57.2557 53.5097 57.2648 54.4521C57.2829 56.6901 57.2739 58.9553 57.2739 61.2114V61.583C57.1924 61.5195 57.1471 61.4833 57.1018 61.4561C56.8843 61.293 56.6487 61.1843 56.3859 61.1662C55.9601 61.148 55.3349 61.7008 54.9905 62.3894C54.6825 62.9964 54.4923 64.1653 54.7822 64.8448C54.909 65.1348 55.0359 65.4247 55.1718 65.6966C56.232 67.699 57.437 69.4659 58.633 71.2418C58.6643 71.2886 58.6996 71.2995 58.7344 71.3159L58.7412 71.334L58.7691 71.3412C58.7756 71.3424 58.7824 71.346 58.7892 71.3464L60.6679 71.8342L61.0009 70.0298C61.9158 69.4619 62.8326 68.8901 63.7433 68.3333C63.9518 68.2064 64.0695 68.0252 64.1602 67.699C64.7038 65.8868 65.0663 64.0747 65.3289 62.2806C65.6621 59.9657 65.805 57.7458 65.7895 55.6012L67.268 55.5095Z" fill="#295C4A"/>
  <path d="M67.5841 54.9271C67.403 54.4015 67.0857 54.2294 66.6327 54.4287C66.361 54.5375 66.0982 54.7277 65.8355 54.8818C65.7629 54.9271 65.6905 54.9724 65.6452 54.8818C65.4367 54.4831 65.1015 54.474 64.721 54.628C64.44 54.7458 64.1591 54.9542 63.8783 55.1173C63.7968 55.1627 63.7242 55.1898 63.6699 55.0992C63.4886 54.764 63.2078 54.7096 62.8726 54.8183C62.6007 54.8999 62.3199 55.0992 62.048 55.2805C61.8848 55.3801 61.8487 55.3257 61.8487 55.0902C61.8577 54.4287 61.8577 53.7582 61.8487 53.0968C61.8487 52.5712 61.6946 52.236 61.4047 52.1182C61.006 51.9642 60.562 52.1816 60.0999 52.6256C59.5744 53.133 59.1757 53.9938 59.1847 54.9361C59.2029 57.1741 59.1938 59.4393 59.1938 61.6955V62.067C59.1123 62.0036 59.0671 61.9673 59.0217 61.9401C58.8043 61.777 58.5687 61.6683 58.3059 61.6502C57.88 61.632 57.2549 62.1848 56.9105 62.8734C56.6024 63.4805 56.4122 64.6493 56.7021 65.3289C56.8289 65.6188 56.9558 65.9088 57.0918 66.1806C58.1519 68.183 59.3569 69.9499 60.5529 71.7258C60.6436 71.8617 60.7432 71.8617 60.8883 71.7711C62.483 70.7835 64.0776 69.7868 65.6632 68.8173C65.8717 68.6904 65.9894 68.5092 66.0801 68.1831C66.6238 66.3709 66.9862 64.5587 67.2489 62.7646C67.5932 60.3726 67.7382 58.0802 67.711 55.8694C67.711 55.516 67.6748 55.1989 67.5841 54.9271ZM67.0043 57.8356C66.9681 59.0135 66.8955 60.2185 66.7597 61.4418C66.5332 63.417 66.1887 65.4104 65.6543 67.431C65.5817 67.7119 65.4911 67.8569 65.3099 67.9656C63.9417 68.8083 62.5735 69.66 61.1962 70.5117C61.0785 70.5841 60.9878 70.5932 60.9154 70.4754C59.9006 68.9713 58.8858 67.4491 57.9615 65.791C57.735 65.3832 57.5085 64.9755 57.3273 64.4862C57.3001 64.3956 57.2549 64.2959 57.2549 64.1691C57.2458 63.8519 57.2458 63.5258 57.4542 63.2177C57.6717 62.9096 57.9072 62.7375 58.1247 62.7918C58.5777 62.9096 58.931 63.2449 59.1666 63.8067C59.2029 63.9063 59.2482 63.9426 59.3479 63.8792C59.4747 63.7885 59.6016 63.707 59.7376 63.6345C59.8643 63.562 59.9006 63.4442 59.9006 63.263V58.7598L60.4422 54.39C60.6144 54.227 60.6074 53.2689 60.7795 53.2146C61.0604 53.1421 61.1601 53.2599 61.1601 53.6948V60.4089C61.1601 60.6686 61.2446 60.7441 61.4138 60.6354C61.9211 60.3183 61.8487 60.4451 61.8487 59.7293C61.8578 58.7236 61.8578 57.7268 61.8487 56.7392C61.8487 56.4946 61.903 56.3858 62.0571 56.3133C62.3017 56.1865 62.5464 55.96 62.7909 55.9147C63.0447 55.8603 63.1081 55.96 63.1081 56.3406V59.2672C63.1081 59.5753 63.1172 59.5844 63.3256 59.4575C63.6397 59.2642 63.7968 58.9319 63.7968 58.4608C63.7968 57.7993 63.8059 57.1289 63.7968 56.4674C63.7968 56.2681 63.8421 56.1684 63.978 56.0959C64.2226 55.96 64.4673 55.7607 64.7119 55.6882C64.9837 55.6157 65.0743 55.7063 65.0743 56.1231C65.0743 57.0926 65.0743 58.0621 65.0652 59.0407C65.0652 59.2944 65.1196 59.3306 65.2827 59.231C65.7629 58.9229 65.7629 58.9319 65.7629 58.2162C65.7629 57.5728 65.772 56.9295 65.7629 56.2953C65.7629 56.0868 65.7992 55.96 65.9531 55.8784C66.1254 55.7879 66.2885 55.6701 66.4515 55.5704C66.7688 55.3892 66.9318 55.4979 66.9862 55.9328C67.0587 56.5218 67.0314 57.1832 67.0043 57.8356Z" fill="#3EB087"/>
  <path d="M67.0043 57.8355C66.968 59.0135 66.8954 60.2185 66.7596 61.4418C66.5331 63.417 66.1886 65.4104 65.6542 67.431C65.5816 67.7119 65.4911 67.8569 65.3098 67.9656C63.9416 68.8082 62.5734 69.6599 61.1961 70.5117C61.0784 70.5841 60.9877 70.5932 60.9153 70.4754C59.9005 68.9713 58.8857 67.4491 57.9615 65.791C57.7349 65.3832 57.5084 64.9755 57.3273 64.4862C57.3 64.3956 57.2548 64.2959 57.2548 64.1691C57.2457 63.8519 57.2457 63.5258 57.4541 63.2177C57.6716 62.9096 57.9072 62.7375 58.1246 62.7918C58.5776 62.9096 58.9309 63.2449 59.1665 63.8066C59.2028 63.9063 59.2481 63.9426 59.3478 63.8792C59.4747 63.7885 59.6015 63.707 59.7375 63.6345C59.8642 63.562 59.9005 63.4442 59.9005 63.263V58.7598L59.9184 54.5502C60.0049 53.7274 60.6113 53.202 60.7834 53.1477C61.0644 53.0752 61.16 53.2598 61.16 53.6948V60.4088C61.16 60.6686 61.2445 60.7441 61.4137 60.6354C61.921 60.3183 61.8486 60.4451 61.8486 59.7293C61.8577 58.7236 61.8577 57.7268 61.8486 56.7392C61.8486 56.4946 61.9029 56.3858 62.057 56.3133C62.3016 56.1865 62.5463 55.96 62.7909 55.9147C63.0446 55.8603 63.1081 55.96 63.1081 56.3405V59.2672C63.1081 59.5753 63.1171 59.5843 63.3255 59.4575C63.6396 59.2642 63.7967 58.9319 63.7967 58.4608C63.7967 57.7993 63.8058 57.1288 63.7967 56.4674C63.7967 56.2681 63.842 56.1684 63.9779 56.0959C64.2225 55.96 64.4672 55.7606 64.7118 55.6881C64.9836 55.6157 65.0742 55.7063 65.0742 56.1231C65.0742 57.0926 65.0742 58.0621 65.0651 59.0407C65.0651 59.2944 65.1195 59.3306 65.2826 59.231C65.7628 58.9229 65.7628 58.9319 65.7628 58.2162C65.7628 57.5728 65.7719 56.9295 65.7628 56.2953C65.7628 56.0868 65.7991 55.96 65.9531 55.8784C66.1253 55.7879 66.2884 55.6701 66.4515 55.5703C66.7687 55.3892 66.9317 55.4979 66.9861 55.9328C67.0586 56.5218 67.0313 57.1832 67.0043 57.8355Z" fill="white"/>
  <path d="M66.6523 51.3227L69.0773 46.1991" stroke="white" stroke-width="1.86879" stroke-linecap="round" stroke-linejoin="round"/>
  <path d="M69.4531 58.5134L74.9972 59.0893" stroke="white" stroke-width="1.86879" stroke-linecap="round" stroke-linejoin="round"/>
  <path d="M75.8576 52.4273L69.4531 54.4187" stroke="white" stroke-width="1.86879" stroke-linecap="round" stroke-linejoin="round"/>
  <defs>
    <linearGradient id="paint0_linear_569_14580" x1="28.9666" y1="44.4269" x2="44.4043" y2="71.1657" gradientUnits="userSpaceOnUse">
      <stop stop-color="#006A3F"/>
      <stop offset="0.09005" stop-color="#066B40"/>
      <stop offset="0.21667" stop-color="#187145"/>
      <stop offset="0.3649" stop-color="#36794C"/>
      <stop offset="0.52966" stop-color="#608656"/>
      <stop offset="0.70797" stop-color="#969564"/>
      <stop offset="0.89471" stop-color="#D7A874"/>
      <stop offset="1" stop-color="#FFB47E"/>
    </linearGradient>
    <linearGradient id="paint1_linear_569_14580" x1="49.831" y1="55.5015" x2="17.6936" y2="23.006" gradientUnits="userSpaceOnUse">
      <stop stop-color="#2E3A37"/>
      <stop offset="0.41759" stop-color="#3E5D57"/>
      <stop offset="0.889" stop-color="#4B7E81"/>
    </linearGradient>
    <linearGradient id="paint2_linear_569_14580" x1="18.2305" y1="35.6316" x2="72.9994" y2="35.6316" gradientUnits="userSpaceOnUse">
      <stop offset="0.23605" stop-color="#B6FFD8"/>
      <stop offset="0.65453" stop-color="#88CEBD"/>
      <stop offset="1" stop-color="#56998D"/>
    </linearGradient>
    <linearGradient id="paint3_linear_569_14580" x1="35.957" y1="51.028" x2="63.5769" y2="51.028" gradientUnits="userSpaceOnUse">
      <stop stop-color="#72B79A"/>
      <stop offset="1" stop-color="#009266"/>
    </linearGradient>
    <linearGradient id="paint4_linear_569_14580" x1="23.3427" y1="39.6099" x2="23.2958" y2="77.0763" gradientUnits="userSpaceOnUse">
      <stop stop-color="#2E3A37"/>
      <stop offset="0.42288" stop-color="#438A6C"/>
      <stop offset="0.90026" stop-color="#4B8177"/>
    </linearGradient>
    <linearGradient id="paint5_linear_569_14580" x1="12.0859" y1="46.6452" x2="38.856" y2="46.6452" gradientUnits="userSpaceOnUse">
      <stop offset="0.23605" stop-color="#B6FFD8"/>
      <stop offset="0.65453" stop-color="#88CEBD"/>
      <stop offset="1" stop-color="#56998D"/>
    </linearGradient>
    <linearGradient id="paint6_linear_569_14580" x1="11.4141" y1="57.9207" x2="30.9722" y2="57.9207" gradientUnits="userSpaceOnUse">
      <stop stop-color="#72B79A"/>
      <stop offset="1" stop-color="#009266"/>
    </linearGradient>
    <linearGradient id="paint7_linear_569_14580" x1="24.3301" y1="35.6316" x2="55.8004" y2="35.6316" gradientUnits="userSpaceOnUse">
      <stop stop-color="#11351E"/>
      <stop offset="0.48716" stop-color="#38534B"/>
      <stop offset="1" stop-color="#4F8C85"/>
    </linearGradient>
    <linearGradient id="paint8_linear_569_14580" x1="24.3301" y1="25.0493" x2="47.3337" y2="25.0493" gradientUnits="userSpaceOnUse">
      <stop stop-color="#72B79E"/>
      <stop offset="1" stop-color="#4C897A"/>
    </linearGradient>
    <linearGradient id="paint9_linear_569_14580" x1="28.7305" y1="26.0365" x2="51.5713" y2="26.0365" gradientUnits="userSpaceOnUse">
      <stop stop-color="#9BF0CC"/>
      <stop offset="1" stop-color="#009266"/>
    </linearGradient>
  </defs>
</svg>