<svg xmlns="http://www.w3.org/2000/svg" width="81" height="80" viewBox="0 0 81 80" fill="none">
  <path d="M38.8056 75.463L3.61458 57.4719C1.80885 56.5487 1.70099 54.0084 3.42197 52.9355L38.7235 30.9275C39.5008 30.4429 40.4754 30.4015 41.291 30.8185L77.7036 49.4341C79.5093 50.3572 79.6172 52.8975 77.8962 53.9705L43.7589 75.2527C42.2593 76.1876 40.3791 76.2674 38.8056 75.463Z" stroke="url(#paint0_linear_569_5076)" stroke-width="1.12557" stroke-miterlimit="10"/>
  <path d="M58.9668 28.0058L54.6325 32.997L48.2745 40.3214L43.1624 46.2112L40.7235 49.0201L40.701 49.0428L39.8174 50.5983L34.4185 60.0823L31.4133 65.368L31.4057 65.3755L17.6403 57.8698L12.5961 55.3327C11.9469 55.008 11.5391 54.3436 11.5391 53.6111V36.0249C11.5391 35.5794 11.6222 35.1414 11.7732 34.7412C11.8337 34.5751 11.909 34.409 11.9998 34.2504C12.3017 33.6917 12.7473 33.216 13.3061 32.8762L37.9372 17.8724C38.7301 17.3891 39.7193 17.3815 40.5273 17.8422L44.9143 20.3642L58.9668 28.0058Z" fill="url(#paint1_linear_569_5076)"/>
  <path d="M58.9668 28.0058L54.6326 32.997L48.2745 40.3214L33.3208 42.9753L32.7189 43.4528C32.0484 43.9849 31.1286 44.0754 30.3672 43.6843L12.9643 34.7458C12.3949 34.4533 12.3083 33.6815 12.7881 33.2577C12.9475 33.1168 13.1206 32.989 13.3061 32.8762L37.9373 17.8724C38.7302 17.3891 39.7194 17.3815 40.5274 17.8422L44.9144 20.3642L58.9668 28.0058Z" fill="url(#paint2_linear_569_5076)"/>
  <path d="M59.5345 28.9874V36.2364L43.1639 46.2112L40.725 49.0201L40.7025 49.0428L39.8189 50.5983V60.9733L34.42 64.2731L32.6228 65.368C32.2227 65.6096 31.7621 65.5794 31.4147 65.368C31.0975 65.1717 30.8711 64.8168 30.8711 64.3863V46.3999C30.8711 45.6977 31.0901 45.0257 31.4828 44.4594C31.7469 44.0667 32.1018 43.7193 32.5247 43.4626L57.8053 28.0133C58.1905 27.7793 58.6285 27.8019 58.9682 28.0058C59.3004 28.1946 59.5345 28.5495 59.5345 28.9874Z" fill="url(#paint3_linear_569_5076)"/>
  <path d="M67.7952 31.7208L66.7154 31.8643L59.5345 36.2363L43.1638 46.2111L41.5858 47.1701C41.0119 47.5175 40.5663 48.0083 40.2568 48.5821C40.2266 48.635 40.2039 48.6879 40.1737 48.7483C39.9397 49.2315 39.8188 49.7676 39.8188 50.3188V67.7465C39.8188 68.1618 39.9624 68.5696 40.2266 68.8943L40.5287 69.2265L35.477 66.6893C34.8277 66.3647 34.4199 65.6926 34.4199 64.9677V47.3816C34.4199 46.9134 34.5104 46.4603 34.6767 46.0375C34.6918 45.9997 34.707 45.962 34.7295 45.9242C35.0165 45.2295 35.5299 44.6405 36.1869 44.2328L54.6339 32.9969L59.5345 30.0143L60.8181 29.229C61.611 28.7457 62.6076 28.7382 63.408 29.1988L67.7952 31.7208Z" fill="url(#paint4_linear_569_5076)"/>
  <path d="M67.7948 31.7209L66.715 31.8644L59.5341 36.2364L43.1634 46.2112L41.5854 47.1702C41.2651 47.364 40.9848 47.6026 40.7458 47.8752C40.3969 48.2734 39.8182 48.3733 39.3407 48.1448C38.2754 47.6348 36.93 46.9876 35.4065 46.2517C35.0019 46.0562 34.8839 45.5405 35.1517 45.1797C35.4286 44.8067 35.7801 44.4851 36.1865 44.2328L54.6335 32.997L59.5341 30.0144L60.8177 29.2291C61.6069 28.7462 62.5967 28.7327 63.3988 29.1938L67.7948 31.7209Z" fill="url(#paint5_linear_569_5076)"/>
  <path d="M68.4805 32.7634V51.3772C68.4805 52.2031 68.0507 52.9694 67.3459 53.3999L41.5661 69.1482C40.8006 69.6158 39.8184 69.0649 39.8184 68.1678V50.1811C39.8184 48.9799 40.4436 47.8653 41.4686 47.2391L66.7522 31.794C67.5093 31.3315 68.4805 31.8764 68.4805 32.7634Z" fill="url(#paint6_linear_569_5076)"/>
  <path d="M44.8294 61.3883C44.587 61.5376 44.4805 61.4548 44.4805 61.1173V52.3675C44.4805 52.03 44.587 51.8159 44.8294 51.6666L47.9217 49.7614C49.1917 48.9789 49.783 49.2627 49.783 50.6804V51.3285C49.783 52.0849 49.599 52.6704 49.2111 53.1393C50.045 52.7332 50.4326 53.1563 50.4326 54.4794V55.7218C50.4326 57.234 49.8414 58.3003 48.552 59.0947L44.8294 61.3883ZM46.6615 54.2912L47.4855 53.7835C47.7377 53.6281 47.8542 53.381 47.8542 53.0166V52.6384C47.8542 52.2739 47.7377 52.1703 47.4855 52.3257L46.6615 52.8334V54.2912ZM46.6615 57.9639L47.9217 57.1874C48.1739 57.0321 48.2903 56.785 48.2903 56.4205V55.8939C48.2903 55.5294 48.1739 55.439 47.9217 55.5944L46.6615 56.3708V57.9639Z" fill="white"/>
  <path d="M54.4585 55.6571C52.0541 57.1384 51.4629 56.3956 51.4629 54.7487V48.0647C51.4629 47.7272 51.5695 47.5131 51.8118 47.3638L53.3341 46.4259C53.5764 46.2766 53.683 46.3594 53.683 46.6969V52.8542C53.683 53.2187 53.7994 53.4168 54.4778 52.9988C55.1662 52.5747 55.2826 52.2331 55.2826 51.8686V45.7113C55.2826 45.3738 55.3793 45.1658 55.6315 45.0104L57.1048 44.1027C57.3471 43.9534 57.4541 44.0359 57.4541 44.3734V51.0574C57.4541 52.7043 56.8625 54.1759 54.4585 55.6571Z" fill="white"/>
  <path d="M60.7163 51.6001C60.4641 51.7555 60.3675 51.6666 60.3675 51.3291V49.6008L58.8843 47.7463C58.5835 47.378 58.5156 47.1499 58.5156 46.3127V43.7203C58.5156 43.3828 58.6222 43.1687 58.8649 43.0191L60.3576 42.0995C60.5999 41.9502 60.7065 42.0329 60.7065 42.3705V44.5847C60.7065 44.7738 60.7065 44.9629 60.7937 45.0983L61.2397 45.7959C61.3076 45.9157 61.366 45.9473 61.4726 45.8817L61.5696 45.8219C61.6762 45.7562 61.7342 45.6529 61.8021 45.4494L62.2481 44.2022C62.3353 43.9594 62.3353 43.7703 62.3353 43.5812V41.3669C62.3353 41.0294 62.4419 40.8153 62.6842 40.666L64.1287 39.776C64.3711 39.6267 64.4776 39.7095 64.4776 40.047V42.6394C64.4776 43.4767 64.4003 43.7942 64.1094 44.527L62.6357 48.2165V49.9316C62.6357 50.2692 62.5291 50.4832 62.2868 50.6325L60.7163 51.6001Z" fill="white"/>
  <path d="M20.1382 56.4051C19.8222 56.2433 19.6832 56.0057 19.6832 55.6284V54.8137L17.9511 53.927C17.6351 53.7652 17.4961 53.5281 17.4961 53.1509V51.385C17.4961 51.0077 17.6351 50.913 17.9511 51.0747L21.352 52.8157C21.5671 52.9259 21.6809 52.7875 21.6809 52.546C21.6809 52.1989 21.5671 52.0048 21.352 51.8646L19.4557 50.5768C18.2672 49.7576 17.4961 48.7588 17.4961 47.0685V45.4839C17.4961 43.9146 18.3053 43.4232 19.6832 43.9774V43.1326C19.6832 42.7553 19.8222 42.66 20.1382 42.8217L21.9717 43.7604C22.2877 43.9222 22.4267 44.1598 22.4267 44.5371V45.3518L23.6533 45.9798C23.9694 46.1416 24.1084 46.3786 24.1084 46.7559V48.5519C24.1084 48.9291 23.9694 49.0239 23.6533 48.8621L20.7075 47.354C20.4924 47.2439 20.3657 47.3603 20.3657 47.6319C20.3657 47.9035 20.4924 48.1496 20.7075 48.2898L22.5909 49.5563C23.7794 50.3755 24.5634 51.3808 24.5634 53.0711V54.6558C24.5634 56.1949 23.7671 56.7083 22.4267 56.188V57.0329C22.4267 57.4102 22.2877 57.5055 21.9717 57.3437L20.1382 56.4051Z" fill="white"/>
  <path d="M51.1752 27.5859L30.8049 40.1608C30.4021 40.4095 29.8985 40.4293 29.4774 40.213L19.1377 34.9035C18.7156 34.6867 18.6922 34.0919 19.096 33.8427L39.4662 21.2677C39.8691 21.0191 40.3727 20.9992 40.7938 21.2155L51.1334 26.525C51.5556 26.7418 51.579 27.3366 51.1752 27.5859Z" fill="url(#paint7_linear_569_5076)"/>
  <path d="M42.6783 6.79282L38.0586 4.91172C36.9385 4.49473 35.9188 4.04273 34.7425 3.88464L34.7084 3.87209L34.6993 3.8767C34.2907 3.82399 33.8725 3.79398 33.4404 3.80133C27.0957 3.90946 20.7333 10.2969 19.1527 18.4033C17.8217 25.2283 20.4439 31.2541 25.0665 33.5739L26.2503 34.1199C27.4998 34.6962 28.7772 35.2097 30.0779 35.6584L31.618 33.8829C32.1525 34.0848 32.7504 36.1161 32.9286 35.5732L34.5472 30.6425C38.1589 27.9568 41.0784 23.4195 42.0745 18.3269C42.6878 15.1904 42.4756 12.2856 41.6181 9.90277L42.6783 6.79282Z" fill="url(#paint8_linear_569_5076)"/>
  <path d="M46.7408 20.5186C45.2303 28.7262 38.9934 35.6552 32.6578 35.9501C26.1358 36.2537 22.0746 29.4472 23.7515 20.7974C25.416 12.2112 32.0436 5.41492 38.3966 5.55656C44.5704 5.69419 48.2407 12.3684 46.7408 20.5186Z" fill="url(#paint9_linear_569_5076)"/>
  <path d="M43.9998 20.927C42.7027 26.9313 38.4768 31.9524 34.0832 32.852C33.6439 32.9357 33.2046 32.988 32.7651 32.988C27.7859 33.0298 24.9197 27.3811 26.4888 20.4248C27.6919 15.0899 31.1227 10.707 34.8572 9.14834C35.9452 8.68807 37.0541 8.46837 38.1525 8.54161C42.8388 8.84494 45.412 14.3682 43.9998 20.927Z" fill="#295C4A"/>
  <path d="M42.504 21.3976C41.3637 26.7221 37.9119 31.2724 34.0832 32.852C33.6439 32.9357 33.2046 32.988 32.7651 32.988C27.7859 33.0298 24.9197 27.3811 26.4888 20.4248C27.6919 15.0899 31.1227 10.7069 34.8572 9.1483C35.4536 9.02278 36.0603 8.97043 36.6564 9.01231C41.3535 9.31564 43.9267 14.8389 42.504 21.3976Z" fill="white"/>
  <path d="M34.0873 27.2789C33.8022 27.4301 33.682 27.3404 33.6936 26.9864L33.7186 26.2219L32.1562 27.0504C31.8711 27.2016 31.7509 27.1124 31.7625 26.7585L31.8168 25.1015C31.8284 24.7475 31.9588 24.5253 32.2439 24.3742L35.3115 22.7473C35.5056 22.6444 35.6143 22.4055 35.6217 22.1789C35.6323 21.8531 35.5339 21.7801 35.3408 21.8548L33.64 22.4644C32.5744 22.8352 31.8975 22.6374 31.9494 21.0513L31.9981 19.5644C32.0463 18.0919 32.8041 16.855 34.0516 16.054L34.0776 15.2613C34.0892 14.9073 34.2197 14.6846 34.5048 14.5334L36.1586 13.6563C36.4437 13.5051 36.5639 13.5949 36.5523 13.9489L36.5273 14.7134L37.6337 14.1266C37.9188 13.9754 38.0391 14.0646 38.0275 14.4186L37.9723 16.1038C37.9607 16.4578 37.8302 16.68 37.5451 16.8311L34.8879 18.2403C34.6939 18.3433 34.5741 18.5739 34.5657 18.8287C34.5574 19.0836 34.666 19.1931 34.8592 19.1184L36.5488 18.5011C37.6144 18.1303 38.3029 18.322 38.251 19.9081L38.2023 21.395C38.155 22.8392 37.4084 24.0843 36.1943 24.8812L36.1683 25.6739C36.1567 26.0279 36.0262 26.2507 35.7411 26.4018L34.0873 27.2789Z" fill="#3EB087"/>
  <defs>
    <linearGradient id="paint0_linear_569_5076" x1="1.9102" y1="53.2736" x2="79.408" y2="53.2736" gradientUnits="userSpaceOnUse">
      <stop stop-color="#006A3F"/>
      <stop offset="0.09005" stop-color="#066B40"/>
      <stop offset="0.21667" stop-color="#187145"/>
      <stop offset="0.3649" stop-color="#36794C"/>
      <stop offset="0.52966" stop-color="#608656"/>
      <stop offset="0.70797" stop-color="#969564"/>
      <stop offset="0.89471" stop-color="#D7A874"/>
      <stop offset="1" stop-color="#FFB47E"/>
    </linearGradient>
    <linearGradient id="paint1_linear_569_5076" x1="11.5391" y1="41.4393" x2="58.9668" y2="41.4393" gradientUnits="userSpaceOnUse">
      <stop stop-color="#72B79A"/>
      <stop offset="1" stop-color="#009266"/>
    </linearGradient>
    <linearGradient id="paint2_linear_569_5076" x1="12.4766" y1="30.7142" x2="69.3122" y2="30.7142" gradientUnits="userSpaceOnUse">
      <stop offset="0.23605" stop-color="#B6FFD8"/>
      <stop offset="0.65453" stop-color="#88CEBD"/>
      <stop offset="1" stop-color="#56998D"/>
    </linearGradient>
    <linearGradient id="paint3_linear_569_5076" x1="27.4427" y1="64.7926" x2="54.7609" y2="27.8246" gradientUnits="userSpaceOnUse">
      <stop offset="0.28742" stop-color="#2E3A37"/>
      <stop offset="0.57" stop-color="#3E5D4E"/>
      <stop offset="0.889" stop-color="#4B816E"/>
    </linearGradient>
    <linearGradient id="paint4_linear_569_5076" x1="51.1382" y1="27.2669" x2="51.0873" y2="74.8027" gradientUnits="userSpaceOnUse">
      <stop stop-color="#4B8177"/>
      <stop offset="0.42288" stop-color="#438A6C"/>
      <stop offset="1" stop-color="#2E3A37"/>
    </linearGradient>
    <linearGradient id="paint5_linear_569_5076" x1="35.0078" y1="38.5613" x2="75.0908" y2="38.5613" gradientUnits="userSpaceOnUse">
      <stop offset="0.318631" stop-color="#88CEBD"/>
      <stop offset="0.799096" stop-color="#56998D"/>
    </linearGradient>
    <linearGradient id="paint6_linear_569_5076" x1="39.8184" y1="50.472" x2="68.4805" y2="50.472" gradientUnits="userSpaceOnUse">
      <stop stop-color="#72B7AB"/>
      <stop offset="1" stop-color="#00926F"/>
    </linearGradient>
    <linearGradient id="paint7_linear_569_5076" x1="18.8066" y1="30.7143" x2="51.4645" y2="30.7143" gradientUnits="userSpaceOnUse">
      <stop stop-color="#11351E"/>
      <stop offset="0.48716" stop-color="#38534B"/>
      <stop offset="1" stop-color="#4F8C85"/>
    </linearGradient>
    <linearGradient id="paint8_linear_569_5076" x1="18.8066" y1="19.7327" x2="42.6783" y2="19.7327" gradientUnits="userSpaceOnUse">
      <stop stop-color="#72B79E"/>
      <stop offset="1" stop-color="#4C897A"/>
    </linearGradient>
    <linearGradient id="paint9_linear_569_5076" x1="23.3731" y1="20.7571" x2="47.0758" y2="20.7571" gradientUnits="userSpaceOnUse">
      <stop stop-color="#9BF0CC"/>
      <stop offset="1" stop-color="#009266"/>
    </linearGradient>
  </defs>
</svg>