<svg xmlns="http://www.w3.org/2000/svg" width="100" height="100" viewBox="0 0 100 100" fill="none">
  <path d="M59.5752 74.1858L23.8494 95.9189C23.1747 96.3294 22.3391 96.3745 21.6241 96.0389L15.1192 92.9857C14.3076 92.6047 14.2466 91.4735 15.0126 91.0076L50.6663 69.3183C51.3861 68.8805 52.2775 68.8324 53.0402 69.1904L59.4686 72.2077C60.2803 72.5887 60.3412 73.7199 59.5752 74.1858Z" stroke="url(#paint0_linear_619_19457)" stroke-width="1.12557" stroke-miterlimit="10"/>
  <path d="M83.0186 48.8089L47.2928 70.542C46.618 70.9525 45.7825 70.9975 45.0675 70.6619L38.5626 67.6087C37.751 67.2278 37.69 66.0966 38.456 65.6306L74.1096 43.9414C74.8295 43.5035 75.7208 43.4555 76.4835 43.8134L82.912 46.8307C83.7236 47.2117 83.7846 48.3429 83.0186 48.8089Z" stroke="url(#paint1_linear_619_19457)" stroke-width="1.12557" stroke-miterlimit="10"/>
  <path d="M58.2276 42.7751L56.9005 42.9514L48.0742 48.3253L27.9525 60.5856L26.0129 61.7643C25.3075 62.1913 24.7598 62.7945 24.3794 63.4999C24.3422 63.5649 24.3144 63.6298 24.2772 63.7041C23.9896 64.298 23.841 64.957 23.841 65.6345V87.0554C23.841 87.5659 24.0175 88.0671 24.3422 88.4662L24.7136 88.8745L18.5044 85.756C17.7063 85.3569 17.2051 84.531 17.2051 83.6399V62.0242C17.2051 61.4488 17.3163 60.8919 17.5207 60.3721C17.5393 60.3258 17.5579 60.2794 17.5855 60.2329C17.9383 59.379 18.5694 58.6551 19.3769 58.1539L42.0507 44.3436L48.0742 40.6776L49.6519 39.7123C50.6265 39.1183 51.8514 39.1091 52.8353 39.6752L58.2276 42.7751Z" fill="url(#paint2_linear_619_19457)"/>
  <path d="M58.2292 42.775L56.902 42.9514L48.0757 48.3252L27.954 60.5855L26.0144 61.7643C25.6207 62.0025 25.2762 62.2957 24.9825 62.6309C24.5536 63.1202 23.8422 63.2431 23.2554 62.9622C21.946 62.3354 20.2923 61.5398 18.4197 60.6353C17.9224 60.3951 17.7773 59.7612 18.1065 59.3178C18.4469 58.8592 18.8789 58.4639 19.3785 58.1539L42.0522 44.3436L48.0757 40.6776L49.6534 39.7123C50.6234 39.1188 51.8401 39.1022 52.8259 39.6689L58.2292 42.775Z" fill="url(#paint3_linear_619_19457)"/>
  <path d="M59.0714 44.0567V66.9355C59.0714 67.9506 58.543 68.8925 57.6767 69.4217L25.99 88.7784C25.0491 89.3532 23.8418 88.676 23.8418 87.5733V65.4653C23.8418 63.9889 24.6103 62.6189 25.8702 61.8493L56.9471 42.8651C57.8776 42.2967 59.0714 42.9664 59.0714 44.0567Z" fill="white"/>
  <path d="M56.5449 48.0819V66.109C56.5449 66.9088 56.1285 67.651 55.446 68.068L28.2747 84.6019C27.5333 85.0548 26.582 84.5212 26.582 83.6524V66.2326C26.582 65.0692 27.1876 63.9897 28.1803 63.3833L54.8711 47.1429C55.6042 46.695 56.5449 47.2227 56.5449 48.0819Z" fill="url(#paint4_linear_619_19457)"/>
  <path d="M40.1916 74.888C39.8363 75.132 39.6864 75.0418 39.7009 74.5943L39.7321 73.628L37.7847 74.9651C37.4294 75.209 37.2795 75.1196 37.2939 74.6721L37.3616 72.5778C37.376 72.1303 37.5386 71.8263 37.894 71.5823L41.7175 68.9571C41.9594 68.791 42.0948 68.47 42.1041 68.1836C42.1174 67.7719 41.9947 67.6986 41.754 67.829L39.6341 68.9168C38.3059 69.5843 37.4622 69.4631 37.5269 67.4584L37.5876 65.579C37.6477 63.7178 38.5922 62.019 40.1472 60.7761L40.1795 59.7741C40.194 59.3266 40.3566 59.0219 40.712 58.7779L42.7733 57.3626C43.1287 57.1186 43.2785 57.2088 43.2641 57.6563L43.2329 58.6226L44.6119 57.6757C44.9673 57.4317 45.1172 57.5212 45.1027 57.9687L45.0339 60.0987C45.0195 60.5462 44.8569 60.8502 44.5015 61.0942L41.1896 63.3682C40.9477 63.5343 40.7983 63.847 40.7879 64.1691C40.7775 64.4912 40.913 64.6084 41.1537 64.478L43.2596 63.3827C44.5878 62.7152 45.4461 62.8264 45.3813 64.8311L45.3206 66.7106C45.2616 68.536 44.3311 70.2431 42.8178 71.4745L42.7854 72.4765C42.771 72.924 42.6083 73.2287 42.253 73.4727L40.1916 74.888Z" fill="white"/>
  <path d="M84.3582 7.66991L82.8549 7.86967L72.8568 13.9569L55.2406 24.4162L53.0435 25.7514C52.2445 26.2351 51.6241 26.9184 51.1931 27.7174C51.151 27.791 51.1195 27.8646 51.0774 27.9487C50.7517 28.6215 50.5833 29.368 50.5833 30.1355V58.7209C50.5833 59.2991 50.7832 59.8669 51.151 60.3189L51.5717 60.7815L44.5382 57.249C43.6342 56.7969 43.0664 55.8613 43.0664 54.852V26.0458C43.0664 25.394 43.1924 24.7632 43.424 24.1745C43.445 24.1219 43.466 24.0693 43.4974 24.0167C43.897 23.0495 44.6118 22.2295 45.5266 21.6618L64.1856 10.638L72.8568 5.29397L74.644 4.20054C75.7479 3.52768 77.1355 3.51722 78.25 4.15852L84.3582 7.66991Z" fill="url(#paint5_linear_619_19457)"/>
  <path d="M84.3575 7.66995L82.8542 7.86971L72.8561 13.9569L55.2399 24.4163L53.0428 25.7515C52.5969 26.0214 52.2066 26.3535 51.8738 26.7331C51.3881 27.2874 50.5822 27.4266 49.9175 27.1084C48.4343 26.3984 46.561 25.4972 44.4399 24.4726C43.8765 24.2005 43.7122 23.4825 44.0851 22.9802C44.4706 22.4607 44.96 22.013 45.5259 21.6618L64.1848 10.638L72.8561 5.294L74.6433 4.20058C75.7421 3.52833 77.1202 3.5095 78.237 4.15147L84.3575 7.66995Z" fill="url(#paint6_linear_619_19457)"/>
  <path d="M85.3138 9.12158V39.3585C85.3138 40.5083 84.7153 41.5753 83.734 42.1747L53.0174 60.6725C51.9515 61.3236 50.584 60.5564 50.584 59.3074V29.9436C50.584 28.2712 51.4545 26.7194 52.8817 25.8475L82.9075 7.77176C83.9615 7.1279 85.3138 7.88648 85.3138 9.12158Z" fill="white"/>
  <path d="M81.9004 14.055V38.3493C81.9004 39.2732 81.4195 40.1305 80.6311 40.6121L55.9513 55.4744C55.0949 55.9976 53.9961 55.3813 53.9961 54.3777V30.7848C53.9961 29.4411 54.6955 28.1942 55.8422 27.4937L79.967 12.9704C80.8138 12.4531 81.9004 13.0626 81.9004 14.055Z" fill="url(#paint7_linear_619_19457)"/>
  <path d="M57.1553 46.609C56.8752 46.7831 56.752 46.687 56.752 46.2946V36.1199C56.752 35.7274 56.8752 35.4783 57.1553 35.3042L58.9601 34.1827C59.1951 34.0367 59.3411 34.0719 59.4757 34.3334L60.4842 36.2662C60.5627 36.4054 60.5965 36.463 60.6859 36.4075L60.7867 36.3448C60.8766 36.2889 60.9104 36.1893 60.9884 35.9529L61.9864 32.7733C62.1206 32.3447 62.2666 32.1281 62.5016 31.982L64.3173 30.8538C64.5979 30.6794 64.7211 30.7754 64.7211 31.1679V41.3426C64.7211 41.735 64.5979 41.9842 64.3173 42.1586L62.5915 43.231C62.2999 43.4122 62.1881 43.3091 62.1881 42.9166V37.3898L61.5264 39.5121C61.3923 39.9567 61.2239 40.2026 60.9328 40.3835L60.4842 40.6622C60.1931 40.8431 60.0247 40.8065 59.8901 40.529L59.2289 39.2286V44.7554C59.2289 45.1479 59.1057 45.3971 58.8255 45.5712L57.1553 46.609Z" fill="white"/>
  <path d="M66.6749 40.6926C66.3947 40.8667 66.2715 40.7707 66.2715 40.3782V30.2035C66.2715 29.811 66.3947 29.5619 66.6749 29.3878L68.4121 28.3083C68.6923 28.1342 68.8159 28.2299 68.8159 28.6224V32.234L69.264 31.9556L70.4185 27.5799C70.5308 27.133 70.6873 26.8945 70.9789 26.7133L72.7051 25.6406C72.963 25.4804 73.0524 25.6134 72.9516 26.0059L71.8085 30.3745C72.649 29.9148 73.187 30.3968 73.187 31.6529V36.0809C73.187 36.4734 73.0638 36.7225 72.7836 36.8966L71.0574 37.9693C70.7772 38.1434 70.654 38.0474 70.654 37.6549V34.593C70.654 34.2478 70.5308 34.1358 70.2953 34.2821L68.8159 35.2014V38.797C68.8159 39.1895 68.6923 39.439 68.4121 39.6131L66.6749 40.6926Z" fill="white"/>
  <path d="M76.3549 34.6793C76.0748 34.8534 75.9516 34.7573 75.9516 34.3649V26.6557L74.3038 27.6796C74.0236 27.8537 73.9004 27.7571 73.9004 27.3646V25.4648C73.9004 25.0723 74.0236 24.8231 74.3038 24.649L80.2218 20.9716C80.502 20.7975 80.6252 20.8935 80.6252 21.286V23.1858C80.6252 23.5783 80.502 23.8281 80.2218 24.0022L78.574 25.0261V32.7353C78.574 33.1278 78.4508 33.3769 78.1706 33.551L76.3549 34.6793Z" fill="white"/>
  <path d="M23.3223 53.4042L25.6154 52.1754L29.028 49.8717L26.7432 50.9974L23.3223 53.4042Z" fill="#295C4A"/>
  <path d="M19.2363 47.4531L21.0181 46.5154L21.5367 49.0939L19.2363 47.4531Z" fill="#46997C"/>
  <path d="M26.7445 50.9975L29.0293 49.8718L27.3783 49.1951C27.3783 49.1951 23.9876 49.4973 24.002 49.5405C24.0164 49.5837 24.4774 50.837 24.4774 50.837L26.7445 50.9975Z" fill="#2A7057"/>
  <path d="M41.8562 41.5854L40.2461 40.8209L42.2649 38.474L41.8562 41.5854Z" fill="#295C4A"/>
  <path d="M25.1351 50.2436L27.3776 49.195L27.2851 34.113L24.5645 36.3064L25.1351 50.2436Z" fill="#295C4A"/>
  <path d="M20.6445 32.9517L22.8925 31.9031L33.8511 37.3589L39.717 34.0228L41.8578 35.1333L34.1423 39.6789L20.6445 32.9517Z" fill="white"/>
  <path d="M44.7624 35.3303L41.834 33.2722V35.1461L34.1406 39.6788V44.4178L41.834 39.8851V41.5731L44.8856 35.8461C44.9801 35.6678 44.9273 35.4466 44.7624 35.3303Z" fill="url(#paint8_linear_619_19457)"/>
  <path d="M25.0701 39.8492L34.141 44.4179L34.1374 39.6716L20.8048 33.0302L20.6487 32.9517V32.9543L20.6435 32.9517L20.6471 37.698L20.6487 37.6988V48.1201L19.2363 47.4532L23.0199 53.2856C23.1066 53.4192 23.2872 53.4537 23.4169 53.3614L26.7426 50.9975L25.1337 50.2378L25.0701 39.8492Z" fill="url(#paint9_linear_619_19457)"/>
  <path d="M39.7129 32.1741L41.858 33.2845L41.858 35.1332L39.7171 34.0228L39.7129 32.1741Z" fill="#46997C"/>
  <defs>
    <linearGradient id="paint0_linear_619_19457" x1="30.051" y1="75.3538" x2="44.5368" y2="89.8396" gradientUnits="userSpaceOnUse">
      <stop stop-color="#006A3F"/>
      <stop offset="0.09005" stop-color="#066B40"/>
      <stop offset="0.21667" stop-color="#187145"/>
      <stop offset="0.3649" stop-color="#36794C"/>
      <stop offset="0.52966" stop-color="#608656"/>
      <stop offset="0.70797" stop-color="#969564"/>
      <stop offset="0.89471" stop-color="#D7A874"/>
      <stop offset="1" stop-color="#FFB47E"/>
    </linearGradient>
    <linearGradient id="paint1_linear_619_19457" x1="53.4944" y1="49.9768" x2="67.9802" y2="64.4627" gradientUnits="userSpaceOnUse">
      <stop stop-color="#006A3F"/>
      <stop offset="0.09005" stop-color="#066B40"/>
      <stop offset="0.21667" stop-color="#187145"/>
      <stop offset="0.3649" stop-color="#36794C"/>
      <stop offset="0.52966" stop-color="#608656"/>
      <stop offset="0.70797" stop-color="#969564"/>
      <stop offset="0.89471" stop-color="#D7A874"/>
      <stop offset="1" stop-color="#FFB47E"/>
    </linearGradient>
    <linearGradient id="paint2_linear_619_19457" x1="37.7541" y1="37.3007" x2="37.6915" y2="95.7284" gradientUnits="userSpaceOnUse">
      <stop stop-color="#4B8177"/>
      <stop offset="0.42288" stop-color="#438A6C"/>
      <stop offset="1" stop-color="#2E3A37"/>
    </linearGradient>
    <linearGradient id="paint3_linear_619_19457" x1="17.9297" y1="51.1828" x2="67.1969" y2="51.1828" gradientUnits="userSpaceOnUse">
      <stop offset="0.318631" stop-color="#88CEBD"/>
      <stop offset="0.799096" stop-color="#56998D"/>
    </linearGradient>
    <linearGradient id="paint4_linear_619_19457" x1="26.582" y1="65.8733" x2="56.5449" y2="65.8733" gradientUnits="userSpaceOnUse">
      <stop stop-color="#72B7AB"/>
      <stop offset="1" stop-color="#00926F"/>
    </linearGradient>
    <linearGradient id="paint5_linear_619_19457" x1="63.7503" y1="1.43351" x2="63.6679" y2="68.6685" gradientUnits="userSpaceOnUse">
      <stop stop-color="#4B8177"/>
      <stop offset="0.42288" stop-color="#438A6C"/>
      <stop offset="1" stop-color="#2E3A37"/>
    </linearGradient>
    <linearGradient id="paint6_linear_619_19457" x1="43.8848" y1="15.4796" x2="93.3638" y2="15.4796" gradientUnits="userSpaceOnUse">
      <stop offset="0.318631" stop-color="#88CEBD"/>
      <stop offset="0.799096" stop-color="#56998D"/>
    </linearGradient>
    <linearGradient id="paint7_linear_619_19457" x1="53.9961" y1="34.2235" x2="81.9004" y2="34.2235" gradientUnits="userSpaceOnUse">
      <stop stop-color="#72B7AB"/>
      <stop offset="1" stop-color="#00926F"/>
    </linearGradient>
    <linearGradient id="paint8_linear_619_19457" x1="39.5464" y1="32.8324" x2="39.5344" y2="45.9574" gradientUnits="userSpaceOnUse">
      <stop stop-color="#308466"/>
      <stop offset="0.42288" stop-color="#1D9C67"/>
      <stop offset="1" stop-color="#005742"/>
    </linearGradient>
    <linearGradient id="paint9_linear_619_19457" x1="33.5822" y1="59.3022" x2="20.6116" y2="29.6946" gradientUnits="userSpaceOnUse">
      <stop offset="0.12547" stop-color="#18463B"/>
      <stop offset="0.46104" stop-color="#177352"/>
      <stop offset="0.83985" stop-color="#36B17E"/>
    </linearGradient>
  </defs>
</svg>