<svg xmlns="http://www.w3.org/2000/svg" width="80" height="80" viewBox="0 0 80 80" fill="none">
  <path d="M55.0893 55.4394L67.1144 61.4177C68.2565 61.9854 69.5996 61.1586 69.5996 59.8878V10.8718C69.5996 9.90931 69.0531 9.02953 68.1882 8.59951L56.0848 2.58238C54.9427 2.01461 53.5996 2.84142 53.5996 4.11224V53.0412C53.5996 54.057 54.1764 54.9856 55.0893 55.4394Z" stroke="url(#paint0_linear_569_14088)" stroke-width="1.12557" stroke-miterlimit="10"/>
  <path d="M64.8008 16.1639L62.9145 16.4128L50.3699 23.9983L28.0758 37.6682L25.3191 39.3321C24.3166 39.9347 23.5382 40.7863 22.9974 41.7819C22.9446 41.8737 22.905 41.9654 22.8522 42.0702C22.4435 42.9086 22.2322 43.8388 22.2322 44.7951V75.0322C22.2322 75.7527 22.4831 76.4602 22.9446 77.0236L23.4725 77.6L14.6474 73.198C13.5132 72.6347 12.8008 71.4688 12.8008 70.211V39.6989C12.8008 38.8867 12.9589 38.1006 13.2494 37.3669C13.2758 37.3014 13.3022 37.236 13.3415 37.1704C13.8429 35.9651 14.7398 34.9433 15.8876 34.2358L43.8112 17.0744L50.3699 13.2031L52.6123 11.8406C53.9974 11.0021 55.7384 10.989 57.1367 11.7882L64.8008 16.1639Z" fill="url(#paint1_linear_569_14088)"/>
  <path d="M64.8004 16.0962L62.9353 16.3415L50.5315 23.8167L28.4877 37.2879L25.762 38.9275C25.2088 39.259 24.7246 39.6668 24.3118 40.133C23.7091 40.8137 22.7094 40.9847 21.8847 40.5939C20.0446 39.722 17.7206 38.6153 15.0891 37.3571C14.3902 37.0229 14.1863 36.1412 14.6489 35.5243C15.1272 34.8865 15.7343 34.3366 16.4364 33.9053L44.0465 16.9935L50.5315 13.1785L52.7488 11.8358C54.1119 11.0102 55.8216 10.9871 57.2071 11.7755L64.8004 16.0962Z" fill="url(#paint2_linear_569_14088)"/>
  <path d="M65.6004 17.969V50.1799C65.6004 51.609 64.8592 52.9351 63.6439 53.6802L25.4141 77.3054C24.094 78.1146 22.4004 77.1612 22.4004 75.6088V44.4831C22.4004 42.4044 23.4785 40.4757 25.246 39.3921L62.6202 16.2913C63.9256 15.4911 65.6004 16.4339 65.6004 17.969Z" fill="url(#paint3_linear_569_14088)"/>
  <path d="M39.2004 46.4835C39.2004 46.4835 38.3494 45.9353 37.9602 45.7227C37.9379 45.7091 37.9155 45.6968 37.8921 45.6853C37.8395 45.6581 37.7991 45.6398 37.7792 45.6361C37.7782 45.6359 37.7748 45.6384 37.7735 45.6383C37.5584 45.5712 37.3153 45.5873 37.0973 45.7258L22.4004 55.0645V66.4L37.6132 56.9146C38.0725 56.6281 38.3518 56.1246 38.3518 55.5826V46.9951L39.2004 46.4835Z" fill="url(#paint4_linear_569_14088)"/>
  <path d="M53.0465 44.8645C53.0328 44.2718 53.0173 43.6799 53.0073 43.0856C53.0057 42.9913 52.9766 42.9587 52.9175 42.9412C52.5999 42.8475 52.2843 42.7479 51.968 42.6504C51.6017 42.5374 51.2356 42.4239 50.8691 42.3115C50.7427 42.2728 50.616 42.2351 50.4884 42.2002C50.449 42.1894 50.4503 42.1449 50.4492 42.0996C50.4334 41.4157 50.4184 40.7314 50.4005 40.0485C50.3988 39.981 50.4148 39.9371 50.4577 39.8851C50.6707 39.6269 50.8812 39.3643 51.0938 39.1055C51.3226 38.827 51.5535 38.5521 51.7819 38.273C51.8222 38.2237 51.8519 38.2133 51.8931 38.2264C52.294 38.3532 52.6965 38.4754 53.0979 38.6006C53.4961 38.7248 53.8936 38.851 54.2914 38.9762C54.3513 38.995 54.3982 38.9823 54.4677 38.8971C55.1569 38.0525 55.8507 37.2158 56.5432 36.3769C56.6284 36.2737 56.7176 36.1761 56.7971 36.0652C56.8439 35.9998 56.8755 35.9915 56.9224 36.0062C57.3673 36.1456 57.8132 36.2826 58.2596 36.4179C58.3217 36.4368 58.3539 36.4729 58.3555 36.5773C58.3657 37.2343 58.3818 37.8888 58.4002 38.5422C58.4027 38.6316 58.3847 38.6873 58.3248 38.7595C57.8902 39.2833 57.4588 39.8125 57.0261 40.3394C56.6805 40.7601 56.3354 41.1819 55.9874 41.5982C55.9358 41.6599 55.9239 41.7043 55.9257 41.7778C55.955 42.9623 55.9806 44.1485 56.0115 45.3324C56.0143 45.4409 55.9838 45.5066 55.9178 45.5862C55.5205 46.0657 55.1249 46.5483 54.7304 47.0327C54.5753 47.2231 54.5772 47.2269 54.3719 47.1626C53.9598 47.0334 53.5487 46.9012 53.1345 46.7779C53.0842 46.7629 53.0896 46.7178 53.0884 46.6674C53.0743 46.0665 53.0604 45.4655 53.0465 44.8645Z" fill="white"/>
  <path d="M56.8623 48.8C56.8417 48.0355 56.8226 47.2985 56.8009 46.5624C56.799 46.4974 56.8205 46.4542 56.8676 46.4049C57.3981 45.8496 57.9269 45.2917 58.4575 44.7365C58.8693 44.3055 59.2816 43.8751 59.6974 43.4502C59.7695 43.3765 59.7831 43.3184 59.7807 43.2337C59.7461 42.0193 59.7153 40.8033 59.6791 39.5895C59.6755 39.4677 59.6963 39.3865 59.7986 39.2813C60.3203 38.7451 60.8349 38.1979 61.3524 37.6554C61.3735 37.6332 61.3921 37.5982 61.4339 37.6L61.4372 37.7206C61.4908 39.7115 61.5434 41.7027 61.6006 43.6922C61.6037 43.8001 61.5697 43.8658 61.4938 43.9448C60.9688 44.491 60.4467 45.0414 59.9227 45.5892C59.36 46.1775 58.7955 46.7631 58.2334 47.3524C57.7811 47.8266 57.3313 48.3045 56.8623 48.8Z" fill="white"/>
  <path d="M49.5996 36.3036C49.9843 35.8462 50.3697 35.3887 50.7545 34.9305C51.1722 34.4331 51.5889 33.9342 52.0069 33.4375C52.4595 32.8998 52.9134 32.3641 53.3662 31.8268C53.5195 31.645 53.6716 31.4611 53.8239 31.2776C53.876 31.2148 53.9168 31.1861 53.9828 31.2065C54.6422 31.4104 55.3055 31.6031 55.967 31.801C56.6047 31.9919 57.2414 32.1851 57.8785 32.3777C58.0481 32.429 58.2172 32.4817 58.3996 32.5378C58.2297 32.7405 58.0718 32.9298 57.9132 33.1178C57.566 33.5294 57.2183 33.9403 56.8711 34.3519C56.8316 34.3987 56.8016 34.4279 56.7493 34.4121C56.2278 34.254 55.7028 34.1055 55.1802 33.9505C54.826 33.8455 54.4687 33.7481 54.1234 33.6201C53.9728 33.5643 53.8729 33.6858 53.7577 33.8229C53.3665 34.2878 52.9745 34.7513 52.5831 35.2158C52.1738 35.7015 51.7569 36.1759 51.3602 36.6803C51.2244 36.8529 51.1449 36.7957 51.0532 36.7698C50.584 36.637 50.1188 36.493 49.652 36.3533C49.6299 36.3466 49.6117 36.3349 49.5996 36.3036Z" fill="white"/>
  <path d="M47.2136 43.2C47.4615 43.2647 47.7071 43.3283 47.9522 43.3929C48.2206 43.4637 48.4872 43.5389 48.7575 43.6048C48.8573 43.6291 48.9093 43.6737 48.9122 43.8197C48.9352 44.9751 48.9707 46.1259 48.9981 47.2798C49.0004 47.3784 49.0273 47.4284 49.1023 47.4481C49.7855 47.6274 50.4677 47.8091 51.15 47.9906C51.3897 48.0543 51.6282 48.1211 51.8688 48.1825C51.9192 48.1953 51.9435 48.2209 51.9451 48.2888C51.961 48.9606 51.9787 49.6316 51.999 50.3017C52.0019 50.3978 51.981 50.4118 51.9112 50.3926C51.4421 50.2639 50.9717 50.1384 50.5014 50.0128C50.0943 49.9041 49.6862 49.7976 49.2794 49.6882C48.7466 49.5448 48.2145 49.3995 47.6821 49.2551C47.6188 49.2379 47.5584 49.2095 47.4911 49.2073C47.3799 49.2036 47.3541 49.1315 47.3509 49.005C47.3043 47.1225 47.2528 45.2418 47.2032 43.3604C47.202 43.3129 47.1903 43.2674 47.2136 43.2Z" fill="white"/>
  <path d="M52.8008 48.49C53.1636 48.5967 53.5091 48.6991 53.8552 48.7999C54.0147 48.8464 54.1768 48.8858 54.3345 48.9368C54.3879 48.9541 54.4229 48.9284 54.471 48.8728C54.9558 48.313 55.4423 47.756 55.9268 47.2C55.9595 47.2097 55.9472 47.248 55.9479 47.2736C55.9655 47.9581 55.981 48.6436 56.0006 49.3274C56.003 49.4109 55.9791 49.4664 55.9243 49.5291C55.4573 50.0626 54.9911 50.5975 54.5261 51.1342C54.4771 51.1908 54.4397 51.2105 54.3871 51.1948C54.0063 51.081 53.6236 50.9722 53.2415 50.8616C53.1287 50.829 53.0164 50.7948 52.9031 50.7636C52.8755 50.756 52.8549 50.7509 52.8539 50.7022C52.8377 49.9711 52.8192 49.2409 52.8008 48.49Z" fill="white"/>
  <path d="M60.0545 37.6L60.0509 37.4445C60.0347 36.7383 60.0167 36.0328 60.0044 35.3249C60.0029 35.2352 59.9783 35.1966 59.9243 35.1795C59.4575 35.0316 58.9909 34.883 58.5244 34.7341C58.4863 34.7219 58.4493 34.7066 58.4004 34.6886C58.5633 34.4866 58.7163 34.2952 58.8706 34.1061C59.2117 33.6879 59.5546 33.2728 59.8935 32.8509C59.9379 32.7958 59.9635 32.7939 60.0011 32.8061C60.4429 32.9489 60.8817 33.1004 61.329 33.2268C61.4864 33.2713 61.5599 33.3594 61.5591 33.6126C61.5568 34.2718 61.5812 34.9203 61.6001 35.5708C61.6032 35.6768 61.5814 35.7456 61.5112 35.8309C61.0483 36.3929 60.5887 36.9606 60.1278 37.526C60.1088 37.5493 60.0869 37.5675 60.0545 37.6Z" fill="white"/>
  <path d="M48.8933 42.4C48.6612 42.3299 48.451 42.2664 48.2407 42.203C47.9323 42.11 47.6248 42.0147 47.3148 41.9264C47.266 41.9125 47.2544 41.8797 47.253 41.8152C47.237 41.0702 47.2199 40.3256 47.1994 39.5825C47.1971 39.4993 47.2173 39.4448 47.2715 39.3813C47.565 39.0373 47.8565 38.6898 48.1488 38.3437C48.341 38.1161 48.535 37.8912 48.7248 37.6597C48.7742 37.5994 48.8109 37.5919 48.8562 37.6062C49.3456 37.7607 49.8354 37.9139 50.3246 38.0689C50.3533 38.078 50.3966 38.0899 50.399 38.1185C50.4028 38.1632 50.3531 38.1956 50.3244 38.2295C49.8489 38.7921 49.3729 39.3542 48.8965 39.9154C48.8443 39.9768 48.8358 40.0358 48.8378 40.1087C48.8563 40.8118 48.8723 41.5161 48.889 42.2201L48.8933 42.4Z" fill="white"/>
  <path d="M56.856 44.8C56.8376 44.0475 56.8203 43.321 56.8009 42.5954C56.7994 42.5401 56.8184 42.4993 56.8508 42.4622C57.3022 41.9453 57.7537 41.4287 58.2061 40.9134C58.3451 40.755 58.3463 40.7568 58.3511 40.9551C58.3671 41.606 58.3818 42.2573 58.4005 42.907C58.4028 42.9857 58.3894 43.0424 58.3332 43.1064C57.9545 43.5371 57.5773 43.9702 57.1998 44.4029C57.0896 44.5292 56.98 44.6567 56.856 44.8Z" fill="white"/>
  <path d="M52.8008 37.1099C53.3148 36.4831 53.821 35.8656 54.3277 35.2492C54.3586 35.2116 54.3854 35.1903 54.4294 35.2044C54.9271 35.3643 55.428 35.5153 55.9274 35.6707C56.0251 35.7011 56.0234 35.7081 55.9331 35.8162C55.4553 36.3887 54.9764 36.9593 54.5017 37.537C54.4436 37.6076 54.4033 37.6062 54.3596 37.5928C53.8418 37.4343 53.325 37.2728 52.8008 37.1099Z" fill="white"/>
  <path d="M51.9888 46.4C51.8339 46.3616 51.6785 46.3256 51.5251 46.2845C51.1877 46.1942 50.8521 46.0994 50.5136 46.0119C50.4694 46.0004 50.4507 45.9812 50.4493 45.9259C50.4339 45.301 50.4168 44.6768 50.4004 44.0523C50.4001 44.0414 50.4027 44.0294 50.406 44C50.5332 44.0324 50.6558 44.0624 50.7774 44.0949C51.1492 44.194 51.5202 44.295 51.8927 44.3923C51.9279 44.4015 51.9498 44.4111 51.9511 44.4609C51.9666 45.097 51.9839 45.7324 52.0004 46.3682C52.0005 46.3741 51.9955 46.382 51.9888 46.4Z" fill="white"/>
  <path d="M18.716 74.4H17.5996V41.2603C17.5996 40.6073 17.7539 39.9533 18.0455 39.3697L18.1317 39.2073C18.4773 38.589 18.9662 38.072 19.5517 37.7026L58.9908 12.8L59.9996 13.3857L20.1437 38.6584C19.7158 38.9287 19.3582 39.3069 19.1091 39.7512L19.0355 39.89C18.8288 40.3045 18.716 40.783 18.716 41.2603L18.716 74.4Z" fill="url(#paint5_linear_569_14088)"/>
  <path d="M13.5926 50.531C13.2493 50.3522 12.8497 50.3567 12.5099 50.5433L11.1992 51.263L22.3992 56.8V55.1189L13.5926 50.531Z" fill="url(#paint6_linear_569_14088)"/>
  <path d="M39.2004 47.2209V56.4058C39.2004 56.9487 38.931 57.4464 38.471 57.7292L22.0731 68L11.1748 62.514C10.7035 62.2764 10.4004 61.79 10.4004 61.2584V52.3224C10.4004 51.6776 11.0625 51.2591 11.635 51.5419L22.0731 56.6547L37.9547 46.5309C38.4934 46.1803 39.2004 46.5761 39.2004 47.2209Z" fill="url(#paint7_linear_569_14088)"/>
  <path d="M39.2004 47.2209V56.4058C39.2004 56.9487 38.9362 57.4464 38.4849 57.7292L22.4004 68V56.6547L37.9785 46.5309C38.5069 46.1803 39.2004 46.5761 39.2004 47.2209Z" fill="url(#paint8_linear_569_14088)"/>
  <path d="M37.5992 51.1513L36.3607 50.6791C36.0604 50.5744 35.787 50.4609 35.4716 50.4212L35.4625 50.4181L35.46 50.4192C35.3505 50.406 35.2384 50.3985 35.1225 50.4003C33.4215 50.4274 31.7157 52.0311 31.292 54.0663C30.9352 55.7798 31.6382 57.2926 32.8775 57.875L33.1949 58.0121C33.5299 58.1568 33.8723 58.2857 34.221 58.3984L34.6339 57.9526C34.7772 58.0033 34.9375 58.5133 34.9853 58.377L35.4193 57.1391C36.3876 56.4648 37.1703 55.3257 37.4373 54.0471C37.6017 53.2596 37.5448 52.5304 37.3149 51.9321L37.5992 51.1513Z" fill="url(#paint9_linear_569_14088)"/>
  <path d="M38.3216 54.3373C37.9648 56.4968 36.4912 58.3199 34.9944 58.3975C33.4535 58.4773 32.494 56.6865 32.8902 54.4106C33.2835 52.1515 34.8493 50.3633 36.3503 50.4006C37.8089 50.4368 38.676 52.1928 38.3216 54.3373Z" fill="url(#paint10_linear_569_14088)"/>
  <path d="M37.5153 54.4442C37.2322 56.0152 36.3099 57.329 35.351 57.5644C35.2551 57.5863 35.1592 57.5999 35.0633 57.5999C33.9766 57.6109 33.351 56.1329 33.6935 54.3128C33.9561 52.917 34.7048 51.7702 35.5199 51.3624C35.7573 51.242 35.9994 51.1845 36.2391 51.2036C37.2619 51.283 37.8235 52.7281 37.5153 54.4442Z" fill="url(#paint11_linear_569_14088)"/>
  <path d="M37.5067 54.5079C37.2358 55.9284 36.4157 57.1423 35.5061 57.5637C35.4017 57.586 35.2974 57.5999 35.1929 57.5999C34.01 57.6111 33.329 56.1042 33.7018 54.2484C33.9876 52.8252 34.8027 51.6559 35.69 51.2401C35.8316 51.2066 35.9758 51.1926 36.1174 51.2038C37.2333 51.2847 37.8447 52.7582 37.5067 54.5079Z" fill="#EBFFDE"/>
  <defs>
    <linearGradient id="paint0_linear_569_14088" x1="53.2603" y1="32" x2="69.9389" y2="32" gradientUnits="userSpaceOnUse">
      <stop stop-color="#006A3F"/>
      <stop offset="0.09005" stop-color="#066B40"/>
      <stop offset="0.21667" stop-color="#187145"/>
      <stop offset="0.3649" stop-color="#36794C"/>
      <stop offset="0.52966" stop-color="#608656"/>
      <stop offset="0.70797" stop-color="#969564"/>
      <stop offset="0.89471" stop-color="#D7A874"/>
      <stop offset="1" stop-color="#FFB47E"/>
    </linearGradient>
    <linearGradient id="paint1_linear_569_14088" x1="38.8486" y1="8.57982" x2="38.7601" y2="86.7724" gradientUnits="userSpaceOnUse">
      <stop stop-color="#4B8177"/>
      <stop offset="0.42288" stop-color="#438A6C"/>
      <stop offset="1" stop-color="#2E3A37"/>
    </linearGradient>
    <linearGradient id="paint2_linear_569_14088" x1="14.4004" y1="26" x2="76.0158" y2="26" gradientUnits="userSpaceOnUse">
      <stop offset="0.318631" stop-color="#88CEBD"/>
      <stop offset="0.799096" stop-color="#56998D"/>
    </linearGradient>
    <linearGradient id="paint3_linear_569_14088" x1="22.4004" y1="46.8" x2="65.6004" y2="46.8" gradientUnits="userSpaceOnUse">
      <stop stop-color="#72B7AB"/>
      <stop offset="1" stop-color="#00926F"/>
    </linearGradient>
    <linearGradient id="paint4_linear_569_14088" x1="16.3258" y1="63.3042" x2="37.6409" y2="51.8318" gradientUnits="userSpaceOnUse">
      <stop stop-color="#333A2E"/>
      <stop offset="0.45548" stop-color="#3E5D4A"/>
      <stop offset="0.96965" stop-color="#4B816A"/>
    </linearGradient>
    <linearGradient id="paint5_linear_569_14088" x1="58.2692" y1="12.8218" x2="18.8882" y2="74.0096" gradientUnits="userSpaceOnUse">
      <stop stop-color="#295C4A"/>
      <stop offset="1" stop-color="#0C3225"/>
    </linearGradient>
    <linearGradient id="paint6_linear_569_14088" x1="25.772" y1="58.411" x2="5.45711" y2="48.5077" gradientUnits="userSpaceOnUse">
      <stop stop-color="#333A2E"/>
      <stop offset="0.41759" stop-color="#3E5D4C"/>
      <stop offset="0.889" stop-color="#4B816A"/>
    </linearGradient>
    <linearGradient id="paint7_linear_569_14088" x1="7.49833" y1="53.9882" x2="37.5105" y2="52.2609" gradientUnits="userSpaceOnUse">
      <stop stop-color="#2E3A39"/>
      <stop offset="0.31222" stop-color="#0F876A"/>
      <stop offset="0.57934" stop-color="#19B48E"/>
    </linearGradient>
    <linearGradient id="paint8_linear_569_14088" x1="12.6569" y1="71.5931" x2="51.2491" y2="42.0067" gradientUnits="userSpaceOnUse">
      <stop stop-color="#2E3A39"/>
      <stop offset="0.31222" stop-color="#0F876A"/>
      <stop offset="0.57934" stop-color="#19B48E"/>
    </linearGradient>
    <linearGradient id="paint9_linear_569_14088" x1="29.9738" y1="59.6191" x2="36.1145" y2="51.1161" gradientUnits="userSpaceOnUse">
      <stop stop-color="#333A2E"/>
      <stop offset="0.45785" stop-color="#3F7852"/>
      <stop offset="0.81691" stop-color="#47A26B"/>
      <stop offset="1" stop-color="#4BB375"/>
    </linearGradient>
    <linearGradient id="paint10_linear_569_14088" x1="38.5908" y1="50.6264" x2="32.063" y2="57.2675" gradientUnits="userSpaceOnUse">
      <stop stop-color="#D3FFB6"/>
      <stop offset="0.1764" stop-color="#B4E099"/>
      <stop offset="0.39742" stop-color="#96C17C"/>
      <stop offset="0.61263" stop-color="#7FAB67"/>
      <stop offset="0.81727" stop-color="#729D5A"/>
      <stop offset="1" stop-color="#6E9956"/>
    </linearGradient>
    <linearGradient id="paint11_linear_569_14088" x1="33.5996" y1="54.4" x2="37.5996" y2="54.4" gradientUnits="userSpaceOnUse">
      <stop stop-color="#333A2E"/>
      <stop offset="1" stop-color="#6B7E46" stop-opacity="0.4"/>
    </linearGradient>
  </defs>
</svg>