<svg width="251" height="250" viewBox="0 0 251 250" fill="none" xmlns="http://www.w3.org/2000/svg">
<path opacity="0.5" d="M107.948 14.5186C95.6935 15.3278 66.233 27.9579 53.0345 34.1718C49.9216 35.6169 36.127 38.218 27.312 45.0099C18.497 51.8018 -6.50303 99.2007 1.58945 158.016C9.68194 216.831 50.2889 238.652 94.075 234.894C137.861 231.137 141.618 238.652 186.272 234.894C230.925 231.137 230.925 204.403 236.127 186.773C241.329 169.143 257.803 138.363 245.665 108.883C233.526 79.403 218.063 74.9232 182.803 43.7094C147.543 12.4955 123.266 13.507 107.948 14.5186Z" fill="#2B2E31"/>
<path d="M171.214 76.9816L102.666 47.6724C102.666 47.6724 91.2434 43.1213 83.9045 43.3734C76.5515 43.6254 68.946 48.4706 67.3603 51.2293C65.7747 53.974 64.7082 59.9814 64.7082 59.9814C64.7082 59.9814 63.2068 78.8721 63.2629 91.3491C63.319 103.826 63.8522 134.998 63.8522 134.998C63.8522 134.998 62.014 149.827 66.771 157.907C71.5279 165.987 85.42 173.507 85.42 173.507L135.277 204.315C135.277 204.315 147.864 213.389 150.726 213.725C153.603 214.061 158.122 212.353 158.739 208.04C159.342 203.727 158.571 195.969 158.571 195.969C158.571 195.969 162.893 197.019 164.45 197.537C166.008 198.069 176.265 201.598 178.146 196.641C180.012 191.698 178.988 181.839 178.988 181.839C178.988 181.839 177.444 163.943 180.489 161.982C183.534 160.022 187.323 158.439 186.986 150.037C186.649 141.649 188.319 128.934 187.014 124.803C185.709 120.686 183.464 120.126 182.131 119.846C180.798 119.566 181.401 111.038 181.401 111.038C181.401 111.038 182.201 90.4109 180.84 85.8738C179.479 81.3367 174.189 78.2559 171.214 76.9816Z" fill="#383F45"/>
<path d="M95.9999 55.4983C82.3999 49.8983 77.6666 53.165 76.9999 55.4983C74.5999 57.5795 78.6666 60.0332 80.9999 61L151.5 90.5C158.3 92.9 159 99.1667 158.5 102V192.5L166.5 194.5C173.3 195.3 173 189.167 172 186L173 95C173 90.2 167.667 86.6667 165 85.5C147.667 77.8328 109.6 61.0983 95.9999 55.4983Z" fill="#303236"/>
<path d="M161.5 135C158.7 135.8 156.667 136 156 136L157 175.5L173.5 166L175 129C171.667 130.667 164.3 134.2 161.5 135Z" fill="#383F45"/>
<path d="M76.5515 57.0418C76.5515 57.0418 81.2383 54.0171 87.188 56.1456C91.9731 57.868 141.858 80.1335 161.138 88.7596C165.741 90.8181 168.702 95.3972 168.73 100.466L168.856 131.302" stroke="#778092" stroke-miterlimit="10" stroke-linecap="round" stroke-dasharray="2 2"/>
<path d="M135.404 159.183C139.125 157.899 140.574 152.332 138.64 146.747C136.706 141.162 132.122 137.675 128.401 138.958C124.68 140.241 123.231 145.809 125.165 151.394C127.098 156.978 131.683 160.466 135.404 159.183Z" fill="#4C5258"/>
<path opacity="0.1" d="M182.299 121.906C182.299 121.906 185.246 125.309 183.296 128.25C181.359 131.191 167.116 139.887 161.237 141.035C155.357 142.183 151.049 143.92 138.967 137.212C126.886 130.504 121.848 126.471 117.849 128.824C117.849 128.824 120.206 122.62 126.689 124.903C133.186 127.186 146.573 134.845 153.772 135.63C160.97 136.414 171.087 130.672 173.501 129.622C175.915 128.572 179.675 126.597 180.265 125.491C180.854 124.385 182.299 121.906 182.299 121.906Z" fill="white"/>
<path d="M157.658 96.4736C156.999 93.6589 154.726 92.3846 150.025 89.948C145.338 87.5114 80.5087 60.5408 77.5619 58.2303C74.6291 55.9197 76.4112 51.6206 82.9222 52.3068C72.833 49.7302 69.2688 57.9222 72.833 60.8629C76.4112 63.8036 129.453 87.0773 143.107 92.5246C156.76 97.972 158.346 106.15 158.346 106.15C158.346 106.15 158.318 99.2883 157.658 96.4736Z" fill="#4C5258"/>
<path d="M158.346 134.999V100.173C158.346 96.0417 155.848 92.3308 152.017 90.7764C133.467 83.2006 80.3122 61.3553 77.1829 58.7646C73.3942 55.6139 80.4946 48.5421 94.99 54.8297C106.749 59.9129 150.404 79.0276 166.597 86.1133C170.302 87.7377 172.687 91.3786 172.687 95.4116V129.986" stroke="#555C6D" stroke-width="1.5" stroke-miterlimit="10"/>
<path d="M158.192 175.425L158.767 207.157C158.865 212.268 153.252 215.447 148.902 212.758L75.4711 167.373C68.6514 163.158 64.4136 155.82 64.1891 147.824C63.4875 123.346 62.3228 71.1977 64.582 57.9645C65.9712 49.8985 71.963 46.1176 78.025 44.4092C84.7044 42.5187 91.8468 43.0508 98.2456 45.7815L173.403 77.9193C178.202 79.8238 181.345 84.4589 181.345 89.6122V121.848C181.345 124.495 179.773 126.889 177.346 127.954L161.882 134.703C157.518 136.608 152.551 136.566 148.229 134.577L128.373 125.503C122.311 122.73 115.421 127.113 115.365 133.765L115.225 153.748C115.197 157.291 117.217 160.526 120.417 162.066L148.664 175.691C151.568 177.092 154.978 176.952 157.757 175.327L182.201 160.974C184.713 159.503 186.284 156.829 186.341 153.916L186.944 126.189C187 123.851 185.807 121.666 183.829 120.434L181.822 119.187" stroke="#555C6D" stroke-width="1.5" stroke-miterlimit="10"/>
<path d="M178.96 162.879V193.476C178.96 197.887 174.61 200.996 170.414 199.582L158.557 195.563" stroke="#555C6D" stroke-width="1.5" stroke-miterlimit="10"/>
<path d="M158.557 192.411L166.779 194.652C169.712 195.45 172.589 193.181 172.491 190.157L171.733 167.121" stroke="#555C6D" stroke-width="1.5" stroke-miterlimit="10"/>
<path d="M240.517 193.32C240.486 193.322 240.455 193.325 240.421 193.328L227.994 193.714C227.648 193.725 227.324 193.549 227.143 193.254C226.961 192.959 226.953 192.591 227.117 192.287L233.003 181.503C233.168 181.202 233.477 181.012 233.82 181.001C234.163 180.989 234.484 181.162 234.665 181.452L241.209 191.85C241.394 192.142 241.408 192.511 241.243 192.817C241.096 193.093 240.823 193.28 240.517 193.32ZM229.616 191.734L238.676 191.453L233.905 183.874L229.616 191.734Z" fill="#383F45"/>
<path d="M200.959 33.4791L204.876 30.5235L207.88 34.5031C208.365 35.1442 209.278 35.2718 209.919 34.7868C210.56 34.3017 210.688 33.3884 210.203 32.7473L207.199 28.7677L211.179 25.7638C211.82 25.2788 211.947 24.3654 211.462 23.7244C210.977 23.0833 210.064 22.9557 209.423 23.4407L205.443 26.4446L202.488 22.5273C202.003 21.8863 201.089 21.7586 200.448 22.2437C200.321 22.3401 200.216 22.4536 200.128 22.5756C199.779 23.0776 199.773 23.7669 200.162 24.2831L203.117 28.2004L199.2 31.156C199.073 31.2525 198.968 31.3659 198.88 31.4879C198.531 31.99 198.525 32.6792 198.914 33.1955C199.404 33.8337 200.318 33.9613 200.959 33.4791Z" fill="#383F45"/>
<path d="M41.3509 30.2202C43.7251 26.8135 48.428 25.9768 51.8347 28.3509C55.2414 30.7251 56.0781 35.428 53.704 38.8347C51.3298 42.2414 46.6268 43.0781 43.2202 40.704C39.8135 38.3298 38.9768 33.6268 41.3509 30.2202ZM51.4574 37.2689C52.9693 35.1018 52.436 32.1093 50.2689 30.6003C48.1018 29.0884 45.1093 29.6217 43.6003 31.7888C42.0884 33.9559 42.6217 36.9484 44.7888 38.4574C46.953 39.9693 49.9456 39.436 51.4574 37.2689Z" fill="#383F45"/>
<path d="M35.1467 174.241C35.1467 173.529 35.7225 172.953 36.4345 172.953H39.0101C39.722 172.953 40.2978 173.529 40.2978 174.241C40.2978 174.953 39.722 175.529 39.0101 175.529H36.4345C35.7225 175.529 35.1467 174.953 35.1467 174.241Z" fill="#383F45"/>
<path d="M33.4561 169.972C32.9541 169.47 32.9541 168.653 33.4561 168.151L35.2772 166.33C35.7792 165.828 36.5962 165.828 37.0982 166.33C37.6003 166.832 37.6003 167.649 37.0982 168.151L35.2772 169.972C34.7751 170.477 33.961 170.477 33.4561 169.972Z" fill="#383F45"/>
<path d="M29.244 168.151C28.532 168.151 27.9562 167.575 27.9562 166.863V164.288C27.9562 163.576 28.532 163 29.244 163C29.9559 163 30.5317 163.576 30.5317 164.288V166.863C30.5317 167.572 29.9531 168.151 29.244 168.151Z" fill="#383F45"/>
<path d="M24.9751 169.839C24.473 170.341 23.6561 170.341 23.154 169.839L21.333 168.018C20.8309 167.516 20.8309 166.699 21.333 166.197C21.835 165.695 22.6519 165.695 23.154 166.197L24.9751 168.018C25.4771 168.523 25.4771 169.337 24.9751 169.839Z" fill="#383F45"/>
<path d="M23.1511 174.053C23.1511 174.765 22.5753 175.341 21.8633 175.341H19.2878C18.5758 175.341 18 174.765 18 174.053C18 173.341 18.5758 172.766 19.2878 172.766H21.8633C22.5753 172.766 23.1511 173.341 23.1511 174.053Z" fill="#383F45"/>
<path d="M24.8416 178.322C25.3437 178.824 25.3437 179.641 24.8416 180.143L23.0206 181.964C22.5185 182.466 21.7016 182.466 21.1995 181.964C20.6975 181.462 20.6975 180.645 21.1995 180.143L23.0206 178.322C23.5227 177.82 24.3367 177.82 24.8416 178.322Z" fill="#383F45"/>
<path d="M29.0539 180.145C29.7659 180.145 30.3417 180.72 30.3417 181.432V184.008C30.3417 184.72 29.7659 185.296 29.0539 185.296C28.3419 185.296 27.7661 184.72 27.7661 184.008V181.432C27.7661 180.72 28.3448 180.145 29.0539 180.145Z" fill="#383F45"/>
<path d="M33.3228 178.459C33.8249 177.957 34.6418 177.957 35.1439 178.459L36.9649 180.28C37.467 180.782 37.467 181.599 36.9649 182.101C36.4629 182.603 35.6459 182.603 35.1439 182.101L33.3228 180.28C32.8208 179.778 32.8208 178.961 33.3228 178.459Z" fill="#383F45"/>
</svg>
