<svg width="789" height="176" viewBox="0 0 789 176" fill="none" xmlns="http://www.w3.org/2000/svg">
<g filter="url(#filter0_d_638_23070)">
<path d="M772.74 79.7178C806.093 155.861 704.827 249.638 42.3382 26.8808C31.3053 23.1952 20.6006 19.5616 10.2695 16C21.1025 19.7081 31.7914 23.3345 42.3382 26.8808C323.43 120.782 817.514 248.449 772.74 79.7178Z" fill="#1ED789"/>
</g>
<g filter="url(#filter1_f_638_23070)">
<path d="M46.4891 21.8913L38 25L46.4891 27.75L49 36L52.2283 27.75L60 25L51.6304 21.8913L49 14L46.4891 21.8913Z" fill="#1ED760"/>
<path d="M46.4891 21.8913L38 25L46.4891 27.75L49 36L52.2283 27.75L60 25L51.6304 21.8913L49 14L46.4891 21.8913Z" stroke="#1ED760"/>
</g>
<path d="M46.4891 21.8913L38 25L46.4891 27.75L49 36L52.2283 27.75L60 25L51.6304 21.8913L49 14L46.4891 21.8913Z" fill="#1ED760" stroke="#1ED760"/>
<defs>
<filter id="filter0_d_638_23070" x="0.269531" y="6" width="788.031" height="169.9" filterUnits="userSpaceOnUse" color-interpolation-filters="sRGB">
<feFlood flood-opacity="0" result="BackgroundImageFix"/>
<feColorMatrix in="SourceAlpha" type="matrix" values="0 0 0 0 0 0 0 0 0 0 0 0 0 0 0 0 0 0 127 0" result="hardAlpha"/>
<feOffset/>
<feGaussianBlur stdDeviation="5"/>
<feComposite in2="hardAlpha" operator="out"/>
<feColorMatrix type="matrix" values="0 0 0 0 0.117647 0 0 0 0 0.843137 0 0 0 0 0.713726 0 0 0 1 0"/>
<feBlend mode="normal" in2="BackgroundImageFix" result="effect1_dropShadow_638_23070"/>
<feBlend mode="normal" in="SourceGraphic" in2="effect1_dropShadow_638_23070" result="shape"/>
</filter>
<filter id="filter1_f_638_23070" x="24.4688" y="0.385681" width="48.9961" height="49.1375" filterUnits="userSpaceOnUse" color-interpolation-filters="sRGB">
<feFlood flood-opacity="0" result="BackgroundImageFix"/>
<feBlend mode="normal" in="SourceGraphic" in2="BackgroundImageFix" result="shape"/>
<feGaussianBlur stdDeviation="6" result="effect1_foregroundBlur_638_23070"/>
</filter>
</defs>
</svg>
