<svg width="65" height="64" viewBox="0 0 65 64" fill="none" xmlns="http://www.w3.org/2000/svg">
<rect x="0.5" width="64" height="64" rx="32" fill="white"/>
<g clip-path="url(#clip0_518_17923)">
<path d="M32.5 56C45.7548 56 56.5 45.2548 56.5 32C56.5 18.7452 45.7548 8 32.5 8C19.2452 8 8.5 18.7452 8.5 32C8.5 45.2548 19.2452 56 32.5 56Z" fill="#26A17B"/>
<path fill-rule="evenodd" clip-rule="evenodd" d="M35.3832 34.0745V34.0715C35.2182 34.0835 34.3677 34.1345 32.4702 34.1345C30.9552 34.1345 29.8887 34.0895 29.5137 34.0715V34.076C23.6817 33.8195 19.3287 32.804 19.3287 31.589C19.3287 30.3755 23.6817 29.36 29.5137 29.099V33.065C29.8947 33.092 30.9867 33.1565 32.4957 33.1565C34.3062 33.1565 35.2137 33.0815 35.3832 33.0665V29.102C41.2032 29.3615 45.5457 30.377 45.5457 31.589C45.5457 32.804 41.2032 33.8165 35.3832 34.0745ZM35.3832 28.6895V25.1405H43.5042V19.7285H21.3927V25.1405H29.5137V28.688C22.9137 28.991 17.9502 30.299 17.9502 31.865C17.9502 33.431 22.9137 34.7375 29.5137 35.042V46.415H35.3832V35.039C41.9727 34.736 46.9242 33.4295 46.9242 31.865C46.9242 30.3005 41.9727 28.994 35.3832 28.6895Z" fill="white"/>
</g>
<defs>
<clipPath id="clip0_518_17923">
<rect width="48" height="48" fill="white" transform="translate(8.5 8)"/>
</clipPath>
</defs>
</svg>
