<svg width="161" height="160" viewBox="0 0 161 160" fill="none" xmlns="http://www.w3.org/2000/svg">
<path opacity="0.5" d="M69.0866 9.2919C61.2438 9.80982 42.3891 17.8931 33.9421 21.8699C31.9499 22.7948 23.1213 24.4595 17.4797 28.8064C11.8381 33.1532 -4.16194 63.4884 1.01725 101.13C6.19644 138.772 32.1849 152.737 60.208 150.332C88.2311 147.928 90.6357 152.737 119.214 150.332C147.792 147.928 147.792 130.818 151.121 119.535C154.451 108.251 164.994 88.552 157.225 69.685C149.457 50.8179 139.561 47.9509 116.994 27.974C94.4277 7.99711 78.8901 8.6445 69.0866 9.2919Z" fill="#2B2E31"/>
<mask id="path-2-inside-1_966_22857" fill="white">
<path fill-rule="evenodd" clip-rule="evenodd" d="M95.4516 108.409C104.391 101.165 110.105 90.0972 110.105 77.695C110.105 55.8735 92.415 38.1836 70.5934 38.1836C48.7719 38.1836 31.082 55.8735 31.082 77.695C31.082 99.5165 48.7719 117.206 70.5934 117.206C78.3136 117.206 85.5166 114.992 91.6021 111.164L121.516 146.434C123.005 148.191 125.636 148.407 127.393 146.917C128.765 145.753 129.197 143.891 128.609 142.295C126.903 143.252 124.705 142.9 123.392 141.352L95.4516 108.409Z"/>
</mask>
<path fill-rule="evenodd" clip-rule="evenodd" d="M95.4516 108.409C104.391 101.165 110.105 90.0972 110.105 77.695C110.105 55.8735 92.415 38.1836 70.5934 38.1836C48.7719 38.1836 31.082 55.8735 31.082 77.695C31.082 99.5165 48.7719 117.206 70.5934 117.206C78.3136 117.206 85.5166 114.992 91.6021 111.164L121.516 146.434C123.005 148.191 125.636 148.407 127.393 146.917C128.765 145.753 129.197 143.891 128.609 142.295C126.903 143.252 124.705 142.9 123.392 141.352L95.4516 108.409Z" fill="#303236"/>
<path d="M95.4516 108.409L94.822 107.632L94.0275 108.276L94.6889 109.055L95.4516 108.409ZM91.6021 111.164L92.3647 110.518L91.8038 109.856L91.0696 110.318L91.6021 111.164ZM121.516 146.434L122.278 145.788L121.516 146.434ZM127.393 146.917L128.039 147.68L127.393 146.917ZM128.609 142.295L129.547 141.949L129.142 140.849L128.119 141.422L128.609 142.295ZM123.392 141.352L124.155 140.706L123.392 141.352ZM109.105 77.695C109.105 89.7829 103.537 100.57 94.822 107.632L96.0812 109.186C105.245 101.76 111.105 90.4115 111.105 77.695H109.105ZM70.5934 39.1836C91.8627 39.1836 109.105 56.4257 109.105 77.695H111.105C111.105 55.3212 92.9673 37.1836 70.5934 37.1836V39.1836ZM32.082 77.695C32.082 56.4257 49.3242 39.1836 70.5934 39.1836V37.1836C48.2196 37.1836 30.082 55.3212 30.082 77.695H32.082ZM70.5934 116.206C49.3242 116.206 32.082 98.9643 32.082 77.695H30.082C30.082 100.069 48.2196 118.206 70.5934 118.206V116.206ZM91.0696 110.318C85.1389 114.048 78.1197 116.206 70.5934 116.206V118.206C78.5074 118.206 85.8942 115.936 92.1345 112.011L91.0696 110.318ZM90.8394 111.811L120.753 147.081L122.278 145.788L92.3647 110.518L90.8394 111.811ZM120.753 147.081C122.6 149.259 125.862 149.527 128.039 147.68L126.746 146.155C125.411 147.287 123.411 147.123 122.278 145.788L120.753 147.081ZM128.039 147.68C129.743 146.235 130.276 143.926 129.547 141.949L127.67 142.64C128.118 143.855 127.788 145.271 126.746 146.155L128.039 147.68ZM128.119 141.422C126.823 142.15 125.152 141.881 124.155 140.706L122.63 141.999C124.257 143.918 126.983 144.353 129.098 143.167L128.119 141.422ZM124.155 140.706L96.2142 107.762L94.6889 109.055L122.63 141.999L124.155 140.706Z" fill="#464C59" mask="url(#path-2-inside-1_966_22857)"/>
<mask id="path-4-inside-2_966_22857" fill="white">
<path fill-rule="evenodd" clip-rule="evenodd" d="M100.516 103.031C107.664 95.9274 112.09 86.0874 112.09 75.2136C112.09 53.5565 94.5337 36 72.8767 36C51.2196 36 33.6631 53.5565 33.6631 75.2136C33.6631 96.8706 51.2196 114.427 72.8767 114.427C80.662 114.427 87.9175 112.158 94.018 108.246C94.0747 108.323 94.1343 108.398 94.1971 108.472L123.699 143.257C125.189 145.014 127.82 145.23 129.576 143.74C131.333 142.251 131.549 139.62 130.059 137.863L100.557 103.078C100.543 103.062 100.53 103.046 100.516 103.031Z"/>
</mask>
<path fill-rule="evenodd" clip-rule="evenodd" d="M100.516 103.031C107.664 95.9274 112.09 86.0874 112.09 75.2136C112.09 53.5565 94.5337 36 72.8767 36C51.2196 36 33.6631 53.5565 33.6631 75.2136C33.6631 96.8706 51.2196 114.427 72.8767 114.427C80.662 114.427 87.9175 112.158 94.018 108.246C94.0747 108.323 94.1343 108.398 94.1971 108.472L123.699 143.257C125.189 145.014 127.82 145.23 129.576 143.74C131.333 142.251 131.549 139.62 130.059 137.863L100.557 103.078C100.543 103.062 100.53 103.046 100.516 103.031Z" fill="#383F45"/>
<path d="M100.516 103.031L99.8109 102.321L99.1456 102.982L99.7627 103.689L100.516 103.031ZM94.018 108.246L94.8229 107.652L94.2669 106.898L93.4781 107.404L94.018 108.246ZM94.1971 108.472L94.9597 107.825L94.9597 107.825L94.1971 108.472ZM123.699 143.257L122.937 143.904L123.699 143.257ZM129.576 143.74L130.223 144.503L129.576 143.74ZM130.059 137.863L129.297 138.51L130.059 137.863ZM100.557 103.078L99.794 103.725L99.7942 103.725L100.557 103.078ZM111.09 75.2136C111.09 85.8103 106.778 95.3981 99.8109 102.321L101.221 103.74C108.55 96.4568 113.09 86.3644 113.09 75.2136H111.09ZM72.8767 37C93.9814 37 111.09 54.1088 111.09 75.2136H113.09C113.09 53.0042 95.086 35 72.8767 35V37ZM34.6631 75.2136C34.6631 54.1088 51.7719 37 72.8767 37V35C50.6673 35 32.6631 53.0042 32.6631 75.2136H34.6631ZM72.8767 113.427C51.7719 113.427 34.6631 96.3184 34.6631 75.2136H32.6631C32.6631 97.4229 50.6673 115.427 72.8767 115.427V113.427ZM93.4781 107.404C87.5339 111.216 80.465 113.427 72.8767 113.427V115.427C80.8591 115.427 88.3011 113.1 94.5578 109.088L93.4781 107.404ZM94.9597 107.825C94.9118 107.769 94.8662 107.711 94.8229 107.652L93.213 108.839C93.2831 108.934 93.3569 109.028 93.4344 109.119L94.9597 107.825ZM124.462 142.611L94.9597 107.825L93.4344 109.119L122.937 143.904L124.462 142.611ZM128.929 142.978C127.594 144.11 125.594 143.946 124.462 142.611L122.937 143.904C124.784 146.082 128.046 146.35 130.223 144.503L128.929 142.978ZM129.297 138.51C130.429 139.845 130.264 141.845 128.929 142.978L130.223 144.503C132.401 142.656 132.669 139.394 130.822 137.217L129.297 138.51ZM99.7942 103.725L129.297 138.51L130.822 137.217L101.319 102.431L99.7942 103.725ZM99.7627 103.689C99.7735 103.701 99.7839 103.713 99.794 103.725L101.32 102.432C101.303 102.411 101.286 102.392 101.269 102.373L99.7627 103.689Z" fill="#555C6D" mask="url(#path-4-inside-2_966_22857)"/>
<circle cx="72.8771" cy="75.2111" r="30.1759" fill="#353C42" stroke="#555C6D"/>
<path d="M96.3634 91.1817C104.234 77.5504 99.5631 60.1201 85.9317 52.25C72.3004 44.3799 54.8701 49.0504 47 62.6817" stroke="#464C59" stroke-linecap="round" stroke-linejoin="round"/>
<path d="M62.207 68.3633H62.2434M80.8344 68.3633H80.8707" stroke="#778092" stroke-width="4" stroke-linecap="round" stroke-linejoin="round"/>
<path d="M61.2617 82.0047C63.9876 79.2454 67.6843 77.6953 71.5387 77.6953C75.3932 77.6953 79.0898 79.2454 81.8157 82.0047" stroke="#778092" stroke-width="3" stroke-linecap="round" stroke-linejoin="round"/>
</svg>
