<svg width="88" height="88" viewBox="0 0 88 88" fill="none" xmlns="http://www.w3.org/2000/svg">
<path d="M74.488 56.6286C76.1464 52.6248 77 48.3336 77 44C77 35.2479 73.5232 26.8542 67.3345 20.6655C61.1458 14.4768 52.7521 11 44 11C35.2479 11 26.8542 14.4768 20.6655 20.6655C14.4768 26.8542 11 35.2479 11 44C11 48.3336 11.8536 52.6248 13.512 56.6286C15.1704 60.6323 17.6011 64.2702 20.6655 67.3345C23.7298 70.3989 27.3677 72.8296 31.3714 74.488C35.3752 76.1464 39.6664 77 44 77C48.3336 77 52.6248 76.1464 56.6286 74.488C60.6323 72.8296 64.2702 70.3989 67.3345 67.3345C70.3989 64.2702 72.8296 60.6323 74.488 56.6286Z" fill="#3583ED" fill-opacity="0.1" stroke="#3583ED" stroke-width="4" stroke-linecap="round" stroke-linejoin="round"/>
<path d="M33 40.7414L44 29.334M44 29.334L55 40.7414M44 29.334V58.6673" stroke="#3583ED" stroke-width="4" stroke-linecap="round" stroke-linejoin="round"/>
</svg>
