<svg width="104" height="104" viewBox="0 0 104 104" fill="none" xmlns="http://www.w3.org/2000/svg">
<path d="M88.0313 66.9247C89.9912 62.193 91 57.1216 91 52C91 41.6566 86.8911 31.7368 79.5772 24.4228C72.2632 17.1089 62.3434 13 52 13C41.6566 13 31.7368 17.1089 24.4228 24.4228C17.1089 31.7368 13 41.6566 13 52C13 57.1216 14.0088 62.193 15.9687 66.9247C17.9286 71.6564 20.8014 75.9557 24.4228 79.5772C28.0443 83.1986 32.3436 86.0714 37.0753 88.0313C41.807 89.9912 46.8784 91 52 91C57.1216 91 62.193 89.9912 66.9247 88.0313C71.6564 86.0714 75.9557 83.1986 79.5772 79.5772C83.1986 75.9557 86.0714 71.6564 88.0313 66.9247Z" stroke="#E56161" stroke-width="6" stroke-linecap="round" stroke-linejoin="round"/>
<path d="M41.1667 62.8334L52 52M52 52L62.8333 41.1667M52 52L41.1667 41.1667M52 52L62.8333 62.8334" stroke="#E56161" stroke-width="6" stroke-linecap="round" stroke-linejoin="round"/>
</svg>
