<svg xmlns="http://www.w3.org/2000/svg" width="32" height="32" viewBox="0 0 32 32" fill="none">
<path fill-rule="evenodd" clip-rule="evenodd" d="M16.0003 2.66602C12.4641 2.66602 9.07272 4.07077 6.57223 6.57126C4.07175 9.07174 2.66699 12.4631 2.66699 15.9993C2.66699 17.7503 3.01187 19.4841 3.68193 21.1018C4.35199 22.7195 5.33412 24.1893 6.57223 25.4274C7.81035 26.6656 9.2802 27.6477 10.8979 28.3177C12.5156 28.9878 14.2494 29.3327 16.0003 29.3327C17.7513 29.3327 19.4851 28.9878 21.1028 28.3177C22.7204 27.6477 24.1903 26.6656 25.4284 25.4274C26.6665 24.1893 27.6487 22.7195 28.3187 21.1018C28.9888 19.4841 29.3337 17.7503 29.3337 15.9993C29.3337 12.4631 27.9289 9.07174 25.4284 6.57126C22.9279 4.07077 19.5365 2.66602 16.0003 2.66602ZM20.9431 14.2755C21.4638 13.7548 21.4638 12.9106 20.9431 12.3899C20.4224 11.8692 19.5782 11.8692 19.0575 12.3899L14.667 16.7804L12.9431 15.0565C12.4224 14.5358 11.5782 14.5358 11.0575 15.0565C10.5368 15.5772 10.5368 16.4215 11.0575 16.9422L13.7242 19.6088C14.2449 20.1295 15.0891 20.1295 15.6098 19.6088L20.9431 14.2755Z" fill="#1ED760"/>
</svg>