<svg viewBox="0 0 996.76 234.597" focusable="false" class="chakra-icon css-vdvc13" aria-label="DexView"><g><path d="M74.029,108.704c-5.974,0-10.818,4.843-10.818,10.817c0,5.973,4.844,10.817,10.818,10.817 c5.974,0,10.817-4.845,10.817-10.817C84.846,113.547,80.002,108.704,74.029,108.704"></path><path d="M156.167,130.339c5.974,0,10.817-4.845,10.817-10.817c0-5.975-4.844-10.817-10.817-10.817 c-5.975,0-10.818,4.843-10.818,10.817C145.349,125.494,150.193,130.339,156.167,130.339"></path><path d="M234.596,119.471C234.596,53.488,182.08,0,117.297,0C52.516,0,0,53.488,0,119.471c0,54.892,36.351,101.133,85.87,115.126 c9.687-23.91,16.396-53.574,19.251-82.884c-47.042-2.031-83.404-15.673-83.404-32.191c0-11.497,17.612-21.598,44.167-27.362 l14.244-48.356l13.051,44.314c3.888-0.35,7.877-0.609,11.942-0.789c3.988-0.167,8.053-0.257,12.176-0.257 c4.125,0,8.189,0.09,12.178,0.257c4.064,0.18,8.053,0.439,11.941,0.789l13.05-44.314l14.243,48.356 c26.556,5.765,44.168,15.865,44.168,27.362c0,16.519-36.362,30.16-83.403,32.191c2.854,29.31,9.562,58.974,19.25,82.884 C198.244,220.604,234.596,174.362,234.596,119.471"></path></g></svg>