<svg width="14" height="14" viewBox="0 0 14 14" fill="none" xmlns="http://www.w3.org/2000/svg">
<path d="M11.8504 9.00909C12.1142 8.37213 12.25 7.68944 12.25 7C12.25 5.60761 11.6969 4.27226 10.7123 3.28769C9.72774 2.30312 8.39239 1.75 7 1.75C5.60761 1.75 4.27226 2.30312 3.28769 3.28769C2.30312 4.27226 1.75 5.60761 1.75 7C1.75 7.68944 1.8858 8.37213 2.14963 9.00909C2.41347 9.64605 2.80018 10.2248 3.28769 10.7123C3.7752 11.1998 4.35395 11.5865 4.99091 11.8504C5.62787 12.1142 6.31056 12.25 7 12.25C7.68944 12.25 8.37213 12.1142 9.00909 11.8504C9.64605 11.5865 10.2248 11.1998 10.7123 10.7123C11.1998 10.2248 11.5865 9.64605 11.8504 9.00909Z" stroke="#E65353" stroke-width="1.5" stroke-linecap="round" stroke-linejoin="round"/>
<path d="M7 4.66699V7.00033M7 9.33366H7.00583" stroke="#E65353" stroke-width="1.5" stroke-linecap="round" stroke-linejoin="round"/>
</svg>
