<svg width="139" height="17" viewBox="0 0 139 17" fill="none" xmlns="http://www.w3.org/2000/svg">
<path d="M0.6 16V5.06L0.2 3.06L0.62 1.86H5.28L9.2 8.86H9.6L12.84 1.86H17.62L17.82 3.06L17.62 4.98V16H13.2L13.26 14.3V8.72H13.04L12.28 10.82L10.84 14H7.64L5.28 8.72H5.08V10.34L5.28 16H0.6ZM22.2795 5.98L19.3195 3.42L22.2795 0.879999L25.2395 3.42L22.2795 5.98ZM20.0595 16V9.38L19.6395 7.78L20.0395 6.56H24.4595V16H20.0595ZM26.4505 16V5.04L26.0305 3.04L26.4505 1.84H30.8905V5.04L30.6705 10.22H31.0505L32.1705 6.56H37.0505V7.76L34.8305 10.8L36.3105 12.8L38.1905 14.82V16H33.5105L31.6505 12.7L30.8905 12.9V16H26.4505ZM44.2945 16.2C43.2679 16.2 42.3345 16.0533 41.4945 15.76C40.6679 15.4533 40.0079 14.9467 39.5145 14.24C39.0345 13.52 38.7945 12.5333 38.7945 11.28C38.7945 10.4 38.9412 9.64667 39.2345 9.02C39.5412 8.39333 39.9479 7.88667 40.4545 7.5C40.9612 7.1 41.5279 6.81333 42.1545 6.64C42.7812 6.45333 43.4279 6.36 44.0945 6.36C44.9345 6.36 45.6345 6.41333 46.1945 6.52C46.7679 6.62667 47.2279 6.74667 47.5745 6.88C47.9212 7.01333 48.1879 7.13333 48.3745 7.24L49.3745 10.42L48.9745 11.66H43.1745C43.2279 12.0333 43.4212 12.3533 43.7545 12.62C44.0879 12.8733 44.6679 13 45.4945 13C46.2812 13 46.9345 12.9133 47.4545 12.74C47.9745 12.5667 48.3479 12.4333 48.5745 12.34V15.42C48.3079 15.5667 47.9412 15.7 47.4745 15.82C47.0079 15.94 46.4945 16.0333 45.9345 16.1C45.3879 16.1667 44.8412 16.2 44.2945 16.2ZM43.1145 10.36L45.1545 9.98L44.9745 9.34C44.7879 9.23333 44.5612 9.18 44.2945 9.18C43.8545 9.18 43.5412 9.3 43.3545 9.54C43.1812 9.78 43.1012 10.0533 43.1145 10.36ZM54.0641 16V5.66L50.0641 5.86V1.84H62.5641V5.86L58.4641 5.66V12.8L58.6841 14.8L58.4641 16H54.0641ZM67.0833 16.2C65.4566 16.2 64.1633 15.8133 63.2033 15.04C62.2433 14.2667 61.7633 13.0133 61.7633 11.28C61.7633 9.53333 62.2433 8.28 63.2033 7.52C64.1633 6.74667 65.4566 6.36 67.0833 6.36C68.7633 6.36 70.0633 6.74667 70.9833 7.52C71.9033 8.28 72.3633 9.53333 72.3633 11.28C72.3633 13.0133 71.9033 14.2667 70.9833 15.04C70.0633 15.8133 68.7633 16.2 67.0833 16.2ZM67.0833 13C67.3366 13 67.5433 12.9 67.7033 12.7C67.8633 12.4867 67.9433 12.0133 67.9433 11.28C67.9433 10.5333 67.8633 10.06 67.7033 9.86C67.5566 9.66 67.3499 9.56 67.0833 9.56C66.8299 9.56 66.6166 9.66 66.4433 9.86C66.2699 10.06 66.1833 10.5333 66.1833 11.28C66.1833 12.0133 66.2699 12.4867 66.4433 12.7C66.6166 12.9 66.8299 13 67.0833 13ZM73.9895 16V5.04L73.5695 3.04L73.9895 1.84H78.4295V5.04L78.2095 10.22H78.5895L79.7095 6.56H84.5895V7.76L82.3695 10.8L83.8495 12.8L85.7295 14.82V16H81.0495L79.1895 12.7L78.4295 12.9V16H73.9895ZM91.8336 16.2C90.8069 16.2 89.8736 16.0533 89.0336 15.76C88.2069 15.4533 87.5469 14.9467 87.0536 14.24C86.5736 13.52 86.3336 12.5333 86.3336 11.28C86.3336 10.4 86.4803 9.64667 86.7736 9.02C87.0803 8.39333 87.4869 7.88667 87.9936 7.5C88.5003 7.1 89.0669 6.81333 89.6936 6.64C90.3203 6.45333 90.9669 6.36 91.6336 6.36C92.4736 6.36 93.1736 6.41333 93.7336 6.52C94.3069 6.62667 94.7669 6.74667 95.1136 6.88C95.4603 7.01333 95.7269 7.13333 95.9136 7.24L96.9136 10.42L96.5136 11.66H90.7136C90.7669 12.0333 90.9603 12.3533 91.2936 12.62C91.6269 12.8733 92.2069 13 93.0336 13C93.8203 13 94.4736 12.9133 94.9936 12.74C95.5136 12.5667 95.8869 12.4333 96.1136 12.34V15.42C95.8469 15.5667 95.4803 15.7 95.0136 15.82C94.5469 15.94 94.0336 16.0333 93.4736 16.1C92.9269 16.1667 92.3803 16.2 91.8336 16.2ZM90.6536 10.36L92.6936 9.98L92.5136 9.34C92.3269 9.23333 92.1003 9.18 91.8336 9.18C91.3936 9.18 91.0803 9.3 90.8936 9.54C90.7203 9.78 90.6403 10.0533 90.6536 10.36ZM98.4031 16V9.98L98.0031 7.78L98.6231 6.56H102.403V7.42L102.583 7.54C102.73 7.40667 102.93 7.25333 103.183 7.08C103.45 6.89333 103.77 6.72667 104.143 6.58C104.516 6.43333 104.936 6.36 105.403 6.36C106.496 6.36 107.303 6.7 107.823 7.38C108.343 8.06 108.603 9.01333 108.603 10.24V12.8L109.003 14.8L108.603 16H104.183V10.94C104.183 10.54 104.09 10.2467 103.903 10.06C103.73 9.86 103.43 9.76 103.003 9.76L102.803 9.96V16H98.4031ZM113.088 17L110.488 14.4L113.088 11.8L115.688 14.4L113.088 17ZM118.095 16V5.04L117.895 3.04L118.095 1.84H122.515V16H118.095ZM131.587 16.2C130.734 16.2 129.88 16.1 129.027 15.9C128.187 15.6867 127.414 15.3133 126.707 14.78C126.014 14.2467 125.454 13.5067 125.027 12.56C124.6 11.6133 124.387 10.4 124.387 8.92C124.387 7.44 124.6 6.22667 125.027 5.28C125.454 4.33333 126.014 3.59333 126.707 3.06C127.414 2.52667 128.187 2.16 129.027 1.96C129.88 1.74667 130.734 1.64 131.587 1.64C132.44 1.64 133.287 1.74667 134.127 1.96C134.98 2.17333 135.754 2.54667 136.447 3.08C137.154 3.61333 137.72 4.35333 138.147 5.3C138.574 6.24667 138.787 7.45333 138.787 8.92C138.787 10.3867 138.574 11.5933 138.147 12.54C137.72 13.4867 137.154 14.2267 136.447 14.76C135.754 15.2933 134.98 15.6667 134.127 15.88C133.287 16.0933 132.44 16.2 131.587 16.2ZM131.587 12.2C132.454 12.2 133.107 11.94 133.547 11.42C133.987 10.8867 134.207 10.0533 134.207 8.92C134.207 7.8 133.987 6.97333 133.547 6.44C133.107 5.90667 132.454 5.64 131.587 5.64C129.854 5.64 128.987 6.73333 128.987 8.92C128.987 10.04 129.2 10.8667 129.627 11.4C130.067 11.9333 130.72 12.2 131.587 12.2Z" fill="#F6F6FF"/>
</svg>
